<svg width="25" height="24" viewBox="0 0 25 24" fill="none" xmlns="http://www.w3.org/2000/svg">
<path fill-rule="evenodd" clip-rule="evenodd" d="M9.5 4.5C9.83486 4.5 10.1291 4.72198 10.2211 5.04396L11.0343 7.89015C11.3903 9.13593 12.3641 10.1097 13.6099 10.4657L16.456 11.2789C16.778 11.3709 17 11.6651 17 12C17 12.3349 16.778 12.6291 16.456 12.7211L13.6098 13.5343C12.3641 13.8903 11.3903 14.8641 11.0343 16.1099L10.2211 18.956C10.1291 19.278 9.83486 19.5 9.5 19.5C9.16514 19.5 8.87085 19.278 8.77886 18.956L7.96566 16.1099C7.60972 14.8641 6.63593 13.8903 5.39015 13.5343L2.54396 12.7211C2.22198 12.6291 2 12.3349 2 12C2 11.6651 2.22198 11.3709 2.54396 11.2789L5.39015 10.4657C6.63593 10.1097 7.60972 9.13593 7.96566 7.89015L8.77886 5.04396C8.87085 4.72198 9.16514 4.5 9.5 4.5Z" fill="white"/>
<path fill-rule="evenodd" clip-rule="evenodd" d="M18.5 1.5C18.8442 1.5 19.1441 1.73422 19.2276 2.0681L19.4865 3.10356C19.7216 4.04406 20.4559 4.7784 21.3964 5.01353L22.4319 5.27239C22.7658 5.35586 23 5.65585 23 6C23 6.34415 22.7658 6.64414 22.4319 6.72761L21.3964 6.98647C20.4559 7.2216 19.7216 7.95594 19.4865 8.89644L19.2276 9.9319C19.1441 10.2658 18.8442 10.5 18.5 10.5C18.1558 10.5 17.8559 10.2658 17.7724 9.9319L17.5135 8.89644C17.2784 7.95594 16.5441 7.2216 15.6036 6.98647L14.5681 6.72761C14.2342 6.64414 14 6.34415 14 6C14 5.65585 14.2342 5.35586 14.5681 5.27239L15.6036 5.01353C16.5441 4.7784 17.2784 4.04406 17.5135 3.10356L17.7724 2.0681C17.8559 1.73422 18.1558 1.5 18.5 1.5Z" fill="white"/>
<path fill-rule="evenodd" clip-rule="evenodd" d="M17 15C17.3228 15 17.6094 15.2066 17.7115 15.5128L18.1058 16.6956C18.2551 17.1435 18.6065 17.4949 19.0544 17.6442L20.2372 18.0385C20.5434 18.1406 20.75 18.4272 20.75 18.75C20.75 19.0728 20.5434 19.3594 20.2372 19.4615L19.0544 19.8558C18.6065 20.0051 18.2551 20.3565 18.1058 20.8044L17.7115 21.9872C17.6094 22.2934 17.3228 22.5 17 22.5C16.6772 22.5 16.3906 22.2934 16.2885 21.9872L15.8942 20.8044C15.7449 20.3565 15.3935 20.0051 14.9456 19.8558L13.7628 19.4615C13.4566 19.3594 13.25 19.0728 13.25 18.75C13.25 18.4272 13.4566 18.1406 13.7628 18.0385L14.9456 17.6442C15.3935 17.4949 15.7449 17.1435 15.8942 16.6956L16.2885 15.5128C16.3906 15.2066 16.6772 15 17 15Z" fill="white"/>
</svg>
