<svg width="25" height="24" viewBox="0 0 25 24" fill="none" xmlns="http://www.w3.org/2000/svg">
<path d="M6.10635 5.65308C6.10635 4.79708 7.02335 4.25508 7.77335 4.66708L19.3133 11.0141C19.49 11.1111 19.6373 11.2538 19.7399 11.4273C19.8425 11.6007 19.8967 11.7985 19.8967 12.0001C19.8967 12.2016 19.8425 12.3994 19.7399 12.5729C19.6373 12.7463 19.49 12.889 19.3133 12.9861L7.77335 19.3331C7.60204 19.4273 7.40913 19.4752 7.21366 19.4721C7.01819 19.469 6.82689 19.4151 6.65862 19.3155C6.49035 19.216 6.35092 19.0744 6.25408 18.9045C6.15724 18.7347 6.10632 18.5426 6.10635 18.3471V5.65308Z" stroke="white" stroke-width="1.5" stroke-linecap="round" stroke-linejoin="round"/>
</svg>
