<svg width="33" height="36" viewBox="0 0 33 36" fill="none" xmlns="http://www.w3.org/2000/svg">
<path d="M9.80032 0.463721C10.0104 0.306134 10.2495 0.191477 10.504 0.126294C10.7584 0.0611104 11.0232 0.0466783 11.2832 0.0838217C11.5432 0.120965 11.7933 0.208957 12.0193 0.342772C12.2453 0.476587 12.4427 0.653606 12.6003 0.863721C12.7579 1.07384 12.8726 1.31293 12.9378 1.56736C13.0029 1.82179 13.0174 2.08656 12.9802 2.34656C12.9431 2.60657 12.8551 2.85671 12.7213 3.08271C12.5875 3.30871 12.4104 3.50614 12.2003 3.66372C9.07232 6.00972 7.28032 8.29172 6.25432 10.2837C7.66306 9.92109 9.14979 10.0063 10.5078 10.5276C11.8659 11.0489 13.0278 11.9803 13.8321 13.1924C14.6364 14.4045 15.0431 15.8371 14.9956 17.291C14.9482 18.7449 14.449 20.1479 13.5674 21.305C12.6858 22.4621 11.4657 23.3158 10.0765 23.7474C8.68737 24.1791 7.19825 24.1673 5.81615 23.7136C4.43404 23.2599 3.22761 22.3869 2.36454 21.2159C1.50147 20.0449 1.02464 18.6342 1.00032 17.1797C0.746895 14.7236 1.09561 12.2428 2.01632 9.95172C3.21032 6.93972 5.54432 3.65572 9.80032 0.463721ZM27.8003 0.463721C28.0104 0.306134 28.2495 0.191477 28.504 0.126294C28.7584 0.0611104 29.0232 0.0466783 29.2832 0.0838217C29.5432 0.120965 29.7933 0.208957 30.0193 0.342772C30.2453 0.476587 30.4427 0.653606 30.6003 0.863721C30.7579 1.07384 30.8726 1.31293 30.9378 1.56736C31.0029 1.82179 31.0174 2.08656 30.9802 2.34656C30.9431 2.60657 30.8551 2.85671 30.7213 3.08271C30.5875 3.30871 30.4104 3.50614 30.2003 3.66372C27.0723 6.00972 25.2803 8.29172 24.2543 10.2837C25.6631 9.92109 27.1498 10.0063 28.5078 10.5276C29.8659 11.0489 31.0278 11.9803 31.8321 13.1924C32.6364 14.4045 33.0431 15.8371 32.9956 17.291C32.9482 18.7449 32.449 20.1479 31.5674 21.305C30.6858 22.4621 29.4657 23.3158 28.0765 23.7474C26.6874 24.1791 25.1983 24.1673 23.8161 23.7136C22.434 23.2599 21.2276 22.3869 20.3645 21.2159C19.5015 20.0449 19.0246 18.6342 19.0003 17.1797C18.7469 14.7236 19.0956 12.2428 20.0163 9.95172C21.2123 6.93972 23.5443 3.65572 27.8003 0.463721Z" fill="white"/>
</svg>
