<svg width="388" height="298" viewBox="0 0 388 298" fill="none" xmlns="http://www.w3.org/2000/svg">
<g filter="url(#filter0_b_208_14233)">
<g clip-path="url(#clip0_208_14233)">
<path d="M0 38.4C0 24.9587 0 18.2381 2.61584 13.1042C4.9168 8.58834 8.58834 4.9168 13.1042 2.61584C18.2381 0 24.9587 0 38.4 0H349.6C363.041 0 369.762 0 374.896 2.61584C379.412 4.9168 383.083 8.58834 385.384 13.1042C388 18.2381 388 24.9587 388 38.4V259.6C388 273.041 388 279.762 385.384 284.896C383.083 289.412 379.412 293.083 374.896 295.384C369.762 298 363.041 298 349.6 298H38.4C24.9587 298 18.2381 298 13.1042 295.384C8.58834 293.083 4.9168 289.412 2.61584 284.896C0 279.762 0 273.041 0 259.6V38.4Z" fill="#0E0D0D" fill-opacity="0.6"/>
<g filter="url(#filter1_bi_208_14233)">
<g clip-path="url(#clip1_208_14233)">
<rect x="12" y="12" width="364" height="250" rx="16" fill="url(#paint0_linear_208_14233)" fill-opacity="0.4"/>
<rect x="28" y="24" width="48" height="48" rx="16" fill="#E9E9E9"/>
<g clip-path="url(#clip2_208_14233)">
<path d="M51.9968 30L51.7623 30.7746V53.2511L51.9968 53.4786L62.7304 47.3115L51.9968 30Z" fill="#343434"/>
<path d="M51.9968 30L41.2632 47.3115L51.9968 53.4787V42.5692V30Z" fill="#8C8C8C"/>
<path d="M51.9967 55.4541L51.8646 55.6106V63.6172L51.9967 63.9923L62.7369 49.29L51.9967 55.4541Z" fill="#3C3C3B"/>
<path d="M51.9968 63.9924V55.4541L41.2632 49.29L51.9968 63.9924Z" fill="#8C8C8C"/>
<path d="M51.9967 53.4786L62.7302 47.3116L51.9967 42.5693V53.4786Z" fill="#141414"/>
<path d="M41.2632 47.3116L51.9967 53.4787V42.5693L41.2632 47.3116Z" fill="#393939"/>
</g>
<path opacity="0.7" d="M89.116 42V33.48H89.932V41.592L89.56 41.208H94.3V42H89.116ZM97.8536 42.144C97.2776 42.144 96.7736 42.008 96.3416 41.736C95.9176 41.464 95.5896 41.08 95.3576 40.584C95.1256 40.08 95.0096 39.492 95.0096 38.82C95.0096 38.14 95.1256 37.552 95.3576 37.056C95.5896 36.56 95.9176 36.176 96.3416 35.904C96.7736 35.632 97.2776 35.496 97.8536 35.496C98.4296 35.496 98.9296 35.632 99.3536 35.904C99.7776 36.176 100.106 36.56 100.338 37.056C100.57 37.552 100.686 38.14 100.686 38.82C100.686 39.492 100.57 40.08 100.338 40.584C100.106 41.08 99.7776 41.464 99.3536 41.736C98.9296 42.008 98.4296 42.144 97.8536 42.144ZM97.8536 41.388C98.4776 41.388 98.9656 41.16 99.3176 40.704C99.6776 40.24 99.8576 39.612 99.8576 38.82C99.8576 38.028 99.6776 37.404 99.3176 36.948C98.9656 36.484 98.4776 36.252 97.8536 36.252C97.2296 36.252 96.7376 36.484 96.3776 36.948C96.0176 37.404 95.8376 38.028 95.8376 38.82C95.8376 39.612 96.0176 40.24 96.3776 40.704C96.7376 41.16 97.2296 41.388 97.8536 41.388ZM102.214 42V35.64H102.898L102.946 37.38L102.838 37.32C102.942 36.752 103.13 36.332 103.402 36.06C103.674 35.78 104.05 35.64 104.53 35.64H105.082V36.408H104.506C104.186 36.408 103.914 36.48 103.69 36.624C103.466 36.76 103.294 36.956 103.174 37.212C103.062 37.468 103.006 37.772 103.006 38.124V42H102.214ZM108.706 42.144C108.098 42.144 107.582 42.004 107.158 41.724C106.734 41.436 106.406 41.044 106.174 40.548C105.95 40.044 105.838 39.468 105.838 38.82C105.838 38.172 105.95 37.6 106.174 37.104C106.398 36.6 106.718 36.208 107.134 35.928C107.558 35.64 108.066 35.496 108.658 35.496C109.226 35.496 109.718 35.632 110.134 35.904C110.55 36.176 110.866 36.56 111.082 37.056C111.306 37.552 111.418 38.132 111.418 38.796V39.048H106.666C106.698 39.8 106.894 40.38 107.254 40.788C107.614 41.188 108.098 41.388 108.706 41.388C109.17 41.388 109.55 41.276 109.846 41.052C110.142 40.828 110.346 40.532 110.458 40.164L111.31 40.224C111.15 40.784 110.842 41.244 110.386 41.604C109.93 41.964 109.37 42.144 108.706 42.144ZM106.666 38.34H110.554C110.514 37.66 110.326 37.144 109.99 36.792C109.654 36.432 109.21 36.252 108.658 36.252C108.106 36.252 107.654 36.432 107.302 36.792C106.95 37.152 106.738 37.668 106.666 38.34ZM112.937 42V35.64H113.657L113.693 37.356L113.585 37.26C113.633 36.908 113.749 36.6 113.933 36.336C114.117 36.072 114.349 35.868 114.629 35.724C114.909 35.572 115.221 35.496 115.565 35.496C116.085 35.496 116.517 35.664 116.861 36C117.205 36.328 117.413 36.784 117.485 37.368L117.317 37.344C117.373 36.96 117.489 36.632 117.665 36.36C117.849 36.08 118.085 35.868 118.373 35.724C118.661 35.572 118.985 35.496 119.345 35.496C119.769 35.496 120.133 35.596 120.437 35.796C120.741 35.988 120.973 36.264 121.133 36.624C121.293 36.984 121.373 37.416 121.373 37.92V42H120.581V38.16C120.581 37.528 120.457 37.044 120.209 36.708C119.969 36.372 119.621 36.204 119.165 36.204C118.845 36.204 118.561 36.288 118.313 36.456C118.073 36.624 117.881 36.86 117.737 37.164C117.601 37.468 117.533 37.824 117.533 38.232V42H116.741V38.196C116.741 37.58 116.629 37.096 116.405 36.744C116.189 36.384 115.845 36.204 115.373 36.204C115.053 36.204 114.769 36.288 114.521 36.456C114.273 36.624 114.077 36.856 113.933 37.152C113.797 37.448 113.729 37.796 113.729 38.196V42H112.937ZM126.343 42V35.64H127.135V42H126.343ZM126.319 34.584V33.516H127.159V34.584H126.319ZM128.945 43.8V35.64H129.665L129.689 37.248L129.557 37.188C129.717 36.636 129.993 36.216 130.385 35.928C130.777 35.64 131.233 35.496 131.753 35.496C132.353 35.496 132.849 35.648 133.241 35.952C133.641 36.248 133.941 36.648 134.141 37.152C134.349 37.648 134.453 38.204 134.453 38.82C134.453 39.436 134.353 39.996 134.153 40.5C133.953 40.996 133.653 41.396 133.253 41.7C132.853 41.996 132.353 42.144 131.753 42.144C131.401 42.144 131.073 42.076 130.769 41.94C130.473 41.796 130.221 41.604 130.013 41.364C129.813 41.124 129.677 40.852 129.605 40.548L129.737 40.392V43.8H128.945ZM131.693 41.388C132.285 41.388 132.753 41.16 133.097 40.704C133.441 40.248 133.613 39.62 133.613 38.82C133.613 38.02 133.441 37.392 133.097 36.936C132.753 36.48 132.281 36.252 131.681 36.252C131.289 36.252 130.945 36.356 130.649 36.564C130.361 36.764 130.137 37.056 129.977 37.44C129.817 37.824 129.737 38.284 129.737 38.82C129.737 39.356 129.817 39.816 129.977 40.2C130.137 40.584 130.365 40.88 130.661 41.088C130.957 41.288 131.301 41.388 131.693 41.388ZM138.256 42.144C137.704 42.144 137.232 42.056 136.84 41.88C136.456 41.696 136.156 41.444 135.94 41.124C135.724 40.804 135.6 40.444 135.568 40.044L136.396 39.984C136.444 40.408 136.62 40.748 136.924 41.004C137.236 41.26 137.68 41.388 138.256 41.388C138.76 41.388 139.152 41.304 139.432 41.136C139.712 40.968 139.852 40.708 139.852 40.356C139.852 40.164 139.808 40.004 139.72 39.876C139.64 39.74 139.472 39.624 139.216 39.528C138.96 39.424 138.576 39.328 138.064 39.24C137.464 39.128 136.996 38.996 136.66 38.844C136.324 38.684 136.088 38.488 135.952 38.256C135.816 38.016 135.748 37.732 135.748 37.404C135.748 36.836 135.952 36.376 136.36 36.024C136.768 35.672 137.336 35.496 138.064 35.496C138.56 35.496 138.98 35.588 139.324 35.772C139.676 35.956 139.952 36.2 140.152 36.504C140.352 36.8 140.484 37.128 140.548 37.488L139.72 37.56C139.672 37.312 139.58 37.092 139.444 36.9C139.308 36.7 139.124 36.544 138.892 36.432C138.66 36.312 138.38 36.252 138.052 36.252C137.572 36.252 137.204 36.356 136.948 36.564C136.7 36.764 136.576 37.032 136.576 37.368C136.576 37.6 136.628 37.792 136.732 37.944C136.836 38.088 137.008 38.208 137.248 38.304C137.488 38.392 137.82 38.472 138.244 38.544C138.876 38.648 139.368 38.78 139.72 38.94C140.08 39.092 140.332 39.284 140.476 39.516C140.62 39.74 140.692 40.016 140.692 40.344C140.692 40.728 140.588 41.056 140.38 41.328C140.172 41.592 139.884 41.796 139.516 41.94C139.156 42.076 138.736 42.144 138.256 42.144ZM144.228 42.144C143.596 42.144 143.088 41.932 142.704 41.508C142.328 41.076 142.14 40.484 142.14 39.732V35.64H142.932V39.492C142.932 40.148 143.056 40.636 143.304 40.956C143.56 41.276 143.936 41.436 144.432 41.436C144.984 41.436 145.416 41.256 145.728 40.896C146.048 40.536 146.208 40.048 146.208 39.432V35.64H147V42H146.256L146.244 40.368L146.364 40.428C146.26 40.972 146.02 41.396 145.644 41.7C145.276 41.996 144.804 42.144 144.228 42.144ZM148.972 42V35.64H149.692L149.728 37.356L149.62 37.26C149.668 36.908 149.784 36.6 149.968 36.336C150.152 36.072 150.384 35.868 150.664 35.724C150.944 35.572 151.256 35.496 151.6 35.496C152.12 35.496 152.552 35.664 152.896 36C153.24 36.328 153.448 36.784 153.52 37.368L153.352 37.344C153.408 36.96 153.524 36.632 153.7 36.36C153.884 36.08 154.12 35.868 154.408 35.724C154.696 35.572 155.02 35.496 155.38 35.496C155.804 35.496 156.168 35.596 156.472 35.796C156.776 35.988 157.008 36.264 157.168 36.624C157.328 36.984 157.408 37.416 157.408 37.92V42H156.616V38.16C156.616 37.528 156.492 37.044 156.244 36.708C156.004 36.372 155.656 36.204 155.2 36.204C154.88 36.204 154.596 36.288 154.348 36.456C154.108 36.624 153.916 36.86 153.772 37.164C153.636 37.468 153.568 37.824 153.568 38.232V42H152.776V38.196C152.776 37.58 152.664 37.096 152.44 36.744C152.224 36.384 151.88 36.204 151.408 36.204C151.088 36.204 150.804 36.288 150.556 36.456C150.308 36.624 150.112 36.856 149.968 37.152C149.832 37.448 149.764 37.796 149.764 38.196V42H148.972Z" fill="white"/>
<path d="M89.376 64V52.64H96.768V54.224H91.104V57.536H96.576V59.072H91.104V62.416H96.896V64H89.376ZM101.734 64C100.923 64 100.326 63.8133 99.942 63.44C99.558 63.0667 99.366 62.4853 99.366 61.696V53.488H101.062V61.568C101.062 61.9627 101.147 62.2347 101.318 62.384C101.489 62.5333 101.75 62.608 102.102 62.608H103.318V64H101.734ZM98.07 56.88V55.488H103.318V56.88H98.07ZM104.584 64V52.64H106.28V57.408L106.072 57.376C106.168 56.896 106.344 56.5067 106.6 56.208C106.856 55.8987 107.17 55.6693 107.544 55.52C107.917 55.3707 108.328 55.296 108.776 55.296C109.394 55.296 109.917 55.4347 110.344 55.712C110.77 55.9787 111.09 56.3573 111.304 56.848C111.528 57.3387 111.64 57.8987 111.64 58.528V64H109.944V58.976C109.944 58.208 109.81 57.6427 109.544 57.28C109.288 56.9067 108.882 56.72 108.328 56.72C107.709 56.72 107.213 56.9173 106.84 57.312C106.466 57.696 106.28 58.2613 106.28 59.008V64H104.584ZM116.874 64.192C116.053 64.192 115.338 64.0107 114.73 63.648C114.133 63.2853 113.669 62.768 113.338 62.096C113.007 61.424 112.842 60.64 112.842 59.744C112.842 58.848 113.007 58.0693 113.338 57.408C113.669 56.736 114.127 56.2187 114.714 55.856C115.311 55.4827 116.015 55.296 116.826 55.296C117.605 55.296 118.287 55.4773 118.874 55.84C119.461 56.192 119.914 56.704 120.234 57.376C120.565 58.048 120.73 58.8587 120.73 59.808V60.24H114.618C114.661 61.072 114.879 61.696 115.274 62.112C115.679 62.528 116.218 62.736 116.89 62.736C117.402 62.736 117.818 62.6187 118.138 62.384C118.469 62.1493 118.703 61.8347 118.842 61.44L120.602 61.552C120.378 62.3413 119.935 62.9813 119.274 63.472C118.623 63.952 117.823 64.192 116.874 64.192ZM114.618 58.96H118.922C118.869 58.2027 118.65 57.6427 118.266 57.28C117.893 56.9173 117.413 56.736 116.826 56.736C116.229 56.736 115.733 56.928 115.338 57.312C114.954 57.6853 114.714 58.2347 114.618 58.96ZM122.061 64V55.488H123.613L123.677 57.744L123.533 57.696C123.651 56.928 123.885 56.368 124.237 56.016C124.6 55.664 125.085 55.488 125.693 55.488H126.509V57.008H125.693C125.267 57.008 124.909 57.0773 124.621 57.216C124.333 57.3547 124.115 57.568 123.965 57.856C123.827 58.144 123.757 58.5173 123.757 58.976V64H122.061ZM130.961 64.192C130.14 64.192 129.425 64.0107 128.817 63.648C128.22 63.2853 127.756 62.768 127.425 62.096C127.094 61.424 126.929 60.64 126.929 59.744C126.929 58.848 127.094 58.0693 127.425 57.408C127.756 56.736 128.214 56.2187 128.801 55.856C129.398 55.4827 130.102 55.296 130.913 55.296C131.692 55.296 132.374 55.4773 132.961 55.84C133.548 56.192 134.001 56.704 134.321 57.376C134.652 58.048 134.817 58.8587 134.817 59.808V60.24H128.705C128.748 61.072 128.966 61.696 129.361 62.112C129.766 62.528 130.305 62.736 130.977 62.736C131.489 62.736 131.905 62.6187 132.225 62.384C132.556 62.1493 132.79 61.8347 132.929 61.44L134.689 61.552C134.465 62.3413 134.022 62.9813 133.361 63.472C132.71 63.952 131.91 64.192 130.961 64.192ZM128.705 58.96H133.009C132.956 58.2027 132.737 57.6427 132.353 57.28C131.98 56.9173 131.5 56.736 130.913 56.736C130.316 56.736 129.82 56.928 129.425 57.312C129.041 57.6853 128.801 58.2347 128.705 58.96ZM138.87 64.192C138.017 64.192 137.334 63.9093 136.822 63.344C136.321 62.768 136.07 61.9733 136.07 60.96V55.488H137.766V60.528C137.766 61.296 137.899 61.8613 138.166 62.224C138.433 62.5867 138.838 62.768 139.382 62.768C140.001 62.768 140.481 62.5707 140.822 62.176C141.174 61.7707 141.35 61.2053 141.35 60.48V55.488H143.046V64H141.462L141.43 61.776L141.67 61.872C141.521 62.6187 141.206 63.1947 140.726 63.6C140.246 63.9947 139.627 64.192 138.87 64.192ZM144.965 64V55.488H146.517L146.565 57.6L146.373 57.536C146.469 57.0667 146.634 56.6667 146.869 56.336C147.114 56.0053 147.413 55.7493 147.765 55.568C148.117 55.3867 148.501 55.296 148.917 55.296C149.642 55.296 150.234 55.504 150.693 55.92C151.152 56.3253 151.44 56.8853 151.557 57.6H151.285C151.381 57.0987 151.541 56.6827 151.765 56.352C152 56.0107 152.298 55.7493 152.661 55.568C153.024 55.3867 153.434 55.296 153.893 55.296C154.49 55.296 154.997 55.424 155.413 55.68C155.84 55.9253 156.16 56.288 156.373 56.768C156.597 57.248 156.709 57.8347 156.709 58.528V64H155.013V58.944C155.013 58.208 154.88 57.6533 154.613 57.28C154.346 56.9067 153.941 56.72 153.397 56.72C153.045 56.72 152.736 56.8107 152.469 56.992C152.202 57.1733 151.994 57.4347 151.845 57.776C151.706 58.1173 151.637 58.528 151.637 59.008V64H150.021V59.008C150.021 58.2827 149.898 57.7227 149.653 57.328C149.418 56.9227 149.013 56.72 148.437 56.72C148.074 56.72 147.76 56.8107 147.493 56.992C147.237 57.1733 147.034 57.44 146.885 57.792C146.736 58.1333 146.661 58.5387 146.661 59.008V64H144.965ZM163.796 65.76C162.324 63.52 161.588 61.2267 161.588 58.88C161.588 56.5227 162.324 54.2293 163.796 52H165.3C163.967 54.304 163.3 56.5973 163.3 58.88C163.3 60.0213 163.465 61.168 163.796 62.32C164.137 63.4613 164.639 64.608 165.3 65.76H163.796ZM166.638 64V52.64H174.03V54.224H168.366V57.536H173.838V59.072H168.366V62.416H174.158V64H166.638ZM178.389 64V54.224H174.901V52.64H183.621V54.224H180.133V64H178.389ZM184.882 64V52.64H186.61V58.112L185.778 57.504H192.69L191.858 58.112V52.64H193.586V64H191.858V58.464L192.69 59.072H185.778L186.61 58.464V64H184.882ZM196.431 65.76H194.911C195.583 64.608 196.084 63.4613 196.415 62.32C196.745 61.168 196.911 60.0213 196.911 58.88C196.911 56.5973 196.244 54.304 194.911 52H196.431C197.903 54.2293 198.639 56.5227 198.639 58.88C198.639 61.2267 197.903 63.52 196.431 65.76Z" fill="white"/>
<path opacity="0.7" d="M29.116 100V91.48H32.236C32.844 91.48 33.36 91.584 33.784 91.792C34.216 91.992 34.548 92.28 34.78 92.656C35.012 93.032 35.128 93.484 35.128 94.012C35.128 94.404 35.036 94.752 34.852 95.056C34.676 95.36 34.44 95.604 34.144 95.788C33.848 95.972 33.528 96.076 33.184 96.1L33.124 95.992C33.684 95.992 34.116 96.12 34.42 96.376C34.732 96.624 34.912 97.016 34.96 97.552L35.176 100H34.348L34.144 97.624C34.112 97.232 33.972 96.944 33.724 96.76C33.476 96.568 33.076 96.472 32.524 96.472H29.932V100H29.116ZM29.932 95.68H32.368C32.952 95.68 33.412 95.536 33.748 95.248C34.092 94.952 34.264 94.536 34.264 94C34.264 93.44 34.092 93.012 33.748 92.716C33.404 92.42 32.896 92.272 32.224 92.272H29.932V95.68ZM39.1784 100.144C38.5704 100.144 38.0544 100.004 37.6304 99.724C37.2064 99.436 36.8784 99.044 36.6464 98.548C36.4224 98.044 36.3104 97.468 36.3104 96.82C36.3104 96.172 36.4224 95.6 36.6464 95.104C36.8704 94.6 37.1904 94.208 37.6064 93.928C38.0304 93.64 38.5384 93.496 39.1304 93.496C39.6984 93.496 40.1904 93.632 40.6064 93.904C41.0224 94.176 41.3384 94.56 41.5544 95.056C41.7784 95.552 41.8904 96.132 41.8904 96.796V97.048H37.1384C37.1704 97.8 37.3664 98.38 37.7264 98.788C38.0864 99.188 38.5704 99.388 39.1784 99.388C39.6424 99.388 40.0224 99.276 40.3184 99.052C40.6144 98.828 40.8184 98.532 40.9304 98.164L41.7824 98.224C41.6224 98.784 41.3144 99.244 40.8584 99.604C40.4024 99.964 39.8424 100.144 39.1784 100.144ZM37.1384 96.34H41.0264C40.9864 95.66 40.7984 95.144 40.4624 94.792C40.1264 94.432 39.6824 94.252 39.1304 94.252C38.5784 94.252 38.1264 94.432 37.7744 94.792C37.4224 95.152 37.2104 95.668 37.1384 96.34ZM44.4603 100L42.4323 93.64H43.2963L44.9403 99.172L46.5603 93.64H47.4003L49.0203 99.172L50.6763 93.64H51.5403L49.5123 100H48.5283L46.9803 94.84L45.4443 100H44.4603ZM54.2661 100.144C53.6261 100.144 53.1141 99.992 52.7301 99.688C52.3461 99.376 52.1541 98.956 52.1541 98.428C52.1541 97.9 52.3221 97.484 52.6581 97.18C52.9941 96.876 53.4861 96.664 54.1341 96.544L56.4861 96.1C56.4861 95.468 56.3501 95.004 56.0781 94.708C55.8061 94.404 55.3941 94.252 54.8421 94.252C54.3541 94.252 53.9661 94.368 53.6781 94.6C53.3901 94.832 53.1981 95.16 53.1021 95.584L52.2621 95.512C52.3821 94.896 52.6621 94.408 53.1021 94.048C53.5501 93.68 54.1301 93.496 54.8421 93.496C55.6341 93.496 56.2381 93.72 56.6541 94.168C57.0701 94.616 57.2781 95.256 57.2781 96.088V98.74C57.2781 98.956 57.3101 99.104 57.3741 99.184C57.4461 99.256 57.5581 99.292 57.7101 99.292H57.9021V100C57.8701 100.008 57.8221 100.012 57.7581 100.012C57.7021 100.02 57.6421 100.024 57.5781 100.024C57.3301 100.024 57.1221 99.98 56.9541 99.892C56.7941 99.804 56.6741 99.66 56.5941 99.46C56.5221 99.26 56.4861 98.984 56.4861 98.632L56.5821 98.644C56.5101 98.924 56.3621 99.18 56.1381 99.412C55.9221 99.636 55.6501 99.816 55.3221 99.952C54.9941 100.08 54.6421 100.144 54.2661 100.144ZM54.3381 99.436C54.7781 99.436 55.1581 99.348 55.4781 99.172C55.7981 98.996 56.0461 98.76 56.2221 98.464C56.3981 98.16 56.4861 97.82 56.4861 97.444V96.808L54.3021 97.216C53.8461 97.304 53.5101 97.44 53.2941 97.624C53.0861 97.808 52.9821 98.052 52.9821 98.356C52.9821 98.7 53.1021 98.968 53.3421 99.16C53.5821 99.344 53.9141 99.436 54.3381 99.436ZM59.2418 100V93.64H59.9258L59.9738 95.38L59.8658 95.32C59.9698 94.752 60.1578 94.332 60.4298 94.06C60.7018 93.78 61.0778 93.64 61.5578 93.64H62.1098V94.408H61.5338C61.2138 94.408 60.9418 94.48 60.7178 94.624C60.4938 94.76 60.3218 94.956 60.2018 95.212C60.0898 95.468 60.0338 95.772 60.0338 96.124V100H59.2418ZM65.5411 100.144C64.9891 100.144 64.5131 100.008 64.1131 99.736C63.7131 99.464 63.4051 99.08 63.1891 98.584C62.9731 98.088 62.8651 97.5 62.8651 96.82C62.8651 96.14 62.9731 95.552 63.1891 95.056C63.4051 94.56 63.7131 94.176 64.1131 93.904C64.5131 93.632 64.9891 93.496 65.5411 93.496C66.0051 93.496 66.4171 93.612 66.7771 93.844C67.1451 94.068 67.4131 94.372 67.5811 94.756V91.48H68.3731V100H67.6771L67.6411 98.812C67.4651 99.228 67.1851 99.556 66.8011 99.796C66.4251 100.028 66.0051 100.144 65.5411 100.144ZM65.6731 99.388C66.0731 99.388 66.4131 99.284 66.6931 99.076C66.9811 98.86 67.2011 98.56 67.3531 98.176C67.5051 97.784 67.5811 97.332 67.5811 96.82C67.5811 96.308 67.5051 95.86 67.3531 95.476C67.2011 95.092 66.9811 94.792 66.6931 94.576C66.4131 94.36 66.0731 94.252 65.6731 94.252C65.0731 94.252 64.5931 94.484 64.2331 94.948C63.8731 95.404 63.6931 96.028 63.6931 96.82C63.6931 97.604 63.8731 98.228 64.2331 98.692C64.5931 99.156 65.0731 99.388 65.6731 99.388ZM73.4715 100V91.48H76.5915C77.1995 91.48 77.7155 91.584 78.1395 91.792C78.5715 91.992 78.9035 92.28 79.1355 92.656C79.3675 93.032 79.4835 93.484 79.4835 94.012C79.4835 94.404 79.3915 94.752 79.2075 95.056C79.0315 95.36 78.7955 95.604 78.4995 95.788C78.2035 95.972 77.8835 96.076 77.5395 96.1L77.4795 95.992C78.0395 95.992 78.4715 96.12 78.7755 96.376C79.0875 96.624 79.2675 97.016 79.3155 97.552L79.5315 100H78.7035L78.4995 97.624C78.4675 97.232 78.3275 96.944 78.0795 96.76C77.8315 96.568 77.4315 96.472 76.8795 96.472H74.2875V100H73.4715ZM74.2875 95.68H76.7235C77.3075 95.68 77.7675 95.536 78.1035 95.248C78.4475 94.952 78.6195 94.536 78.6195 94C78.6195 93.44 78.4475 93.012 78.1035 92.716C77.7595 92.42 77.2515 92.272 76.5795 92.272H74.2875V95.68ZM82.9419 100.144C82.3019 100.144 81.7899 99.992 81.4059 99.688C81.0219 99.376 80.8299 98.956 80.8299 98.428C80.8299 97.9 80.9979 97.484 81.3339 97.18C81.6699 96.876 82.1619 96.664 82.8099 96.544L85.1619 96.1C85.1619 95.468 85.0259 95.004 84.7539 94.708C84.4819 94.404 84.0699 94.252 83.5179 94.252C83.0299 94.252 82.6419 94.368 82.3539 94.6C82.0659 94.832 81.8739 95.16 81.7779 95.584L80.9379 95.512C81.0579 94.896 81.3379 94.408 81.7779 94.048C82.2259 93.68 82.8059 93.496 83.5179 93.496C84.3099 93.496 84.9139 93.72 85.3299 94.168C85.7459 94.616 85.9539 95.256 85.9539 96.088V98.74C85.9539 98.956 85.9859 99.104 86.0499 99.184C86.1219 99.256 86.2339 99.292 86.3859 99.292H86.5779V100C86.5459 100.008 86.4979 100.012 86.4339 100.012C86.3779 100.02 86.3179 100.024 86.2539 100.024C86.0059 100.024 85.7979 99.98 85.6299 99.892C85.4699 99.804 85.3499 99.66 85.2699 99.46C85.1979 99.26 85.1619 98.984 85.1619 98.632L85.2579 98.644C85.1859 98.924 85.0379 99.18 84.8139 99.412C84.5979 99.636 84.3259 99.816 83.9979 99.952C83.6699 100.08 83.3179 100.144 82.9419 100.144ZM83.0139 99.436C83.4539 99.436 83.8339 99.348 84.1539 99.172C84.4739 98.996 84.7219 98.76 84.8979 98.464C85.0739 98.16 85.1619 97.82 85.1619 97.444V96.808L82.9779 97.216C82.5219 97.304 82.1859 97.44 81.9699 97.624C81.7619 97.808 81.6579 98.052 81.6579 98.356C81.6579 98.7 81.7779 98.968 82.0179 99.16C82.2579 99.344 82.5899 99.436 83.0139 99.436ZM89.622 100C89.102 100 88.718 99.88 88.47 99.64C88.222 99.392 88.098 99.016 88.098 98.512V92.152H88.89V98.488C88.89 98.784 88.954 98.992 89.082 99.112C89.218 99.232 89.422 99.292 89.694 99.292H90.534V100H89.622ZM87.102 94.348V93.64H90.534V94.348H87.102ZM94.2799 100.144C93.6719 100.144 93.1559 100.004 92.7319 99.724C92.3079 99.436 91.9799 99.044 91.7479 98.548C91.5239 98.044 91.4119 97.468 91.4119 96.82C91.4119 96.172 91.5239 95.6 91.7479 95.104C91.9719 94.6 92.2919 94.208 92.7079 93.928C93.1319 93.64 93.6399 93.496 94.2319 93.496C94.7999 93.496 95.2919 93.632 95.7079 93.904C96.1239 94.176 96.4399 94.56 96.6559 95.056C96.8799 95.552 96.9919 96.132 96.9919 96.796V97.048H92.2399C92.2719 97.8 92.4679 98.38 92.8279 98.788C93.1879 99.188 93.6719 99.388 94.2799 99.388C94.7439 99.388 95.1239 99.276 95.4199 99.052C95.7159 98.828 95.9199 98.532 96.0319 98.164L96.8839 98.224C96.7239 98.784 96.4159 99.244 95.9599 99.604C95.5039 99.964 94.9439 100.144 94.2799 100.144ZM92.2399 96.34H96.1279C96.0879 95.66 95.8999 95.144 95.5639 94.792C95.2279 94.432 94.7839 94.252 94.2319 94.252C93.6799 94.252 93.2279 94.432 92.8759 94.792C92.5239 95.152 92.3119 95.668 92.2399 96.34Z" fill="white"/>
<path d="M37.831 131.464C36.1297 131.464 34.6507 131.029 33.394 130.159C32.1567 129.289 31.19 128.052 30.494 126.447C29.8173 124.842 29.479 122.938 29.479 120.734C29.479 118.53 29.8173 116.626 30.494 115.021C31.19 113.397 32.1567 112.15 33.394 111.28C34.6507 110.391 36.1297 109.946 37.831 109.946C39.571 109.946 41.0597 110.391 42.297 111.28C43.5537 112.15 44.5203 113.387 45.197 114.992C45.8737 116.597 46.212 118.511 46.212 120.734C46.212 122.938 45.8737 124.842 45.197 126.447C44.5203 128.052 43.5537 129.289 42.297 130.159C41.0597 131.029 39.571 131.464 37.831 131.464ZM37.831 128.593C39.4743 128.593 40.7407 127.916 41.63 126.563C42.5193 125.21 42.964 123.267 42.964 120.734C42.964 119.033 42.761 117.592 42.355 116.413C41.9683 115.234 41.398 114.344 40.644 113.745C39.89 113.126 38.9523 112.817 37.831 112.817C36.7483 112.817 35.83 113.126 35.076 113.745C34.322 114.344 33.742 115.234 33.336 116.413C32.93 117.592 32.727 119.033 32.727 120.734C32.727 123.267 33.1717 125.21 34.061 126.563C34.9503 127.916 36.207 128.593 37.831 128.593ZM47.5222 131V127.346H51.2922V131H47.5222ZM60.9562 131.464C59.2549 131.464 57.7759 131.029 56.5192 130.159C55.2819 129.289 54.3152 128.052 53.6192 126.447C52.9426 124.842 52.6042 122.938 52.6042 120.734C52.6042 118.53 52.9426 116.626 53.6192 115.021C54.3152 113.397 55.2819 112.15 56.5192 111.28C57.7759 110.391 59.2549 109.946 60.9562 109.946C62.6962 109.946 64.1849 110.391 65.4222 111.28C66.6789 112.15 67.6456 113.387 68.3222 114.992C68.9989 116.597 69.3372 118.511 69.3372 120.734C69.3372 122.938 68.9989 124.842 68.3222 126.447C67.6456 128.052 66.6789 129.289 65.4222 130.159C64.1849 131.029 62.6962 131.464 60.9562 131.464ZM60.9562 128.593C62.5996 128.593 63.8659 127.916 64.7552 126.563C65.6446 125.21 66.0892 123.267 66.0892 120.734C66.0892 119.033 65.8862 117.592 65.4802 116.413C65.0936 115.234 64.5232 114.344 63.7692 113.745C63.0152 113.126 62.0776 112.817 60.9562 112.817C59.8736 112.817 58.9552 113.126 58.2012 113.745C57.4472 114.344 56.8672 115.234 56.4612 116.413C56.0552 117.592 55.8522 119.033 55.8522 120.734C55.8522 123.267 56.2969 125.21 57.1862 126.563C58.0756 127.916 59.3322 128.593 60.9562 128.593ZM79.1889 131.464C77.6615 131.464 76.3565 131.222 75.2739 130.739C74.1912 130.236 73.3405 129.54 72.7219 128.651C72.1032 127.762 71.7455 126.737 71.6489 125.577L74.8679 125.374C75.0225 126.457 75.4769 127.269 76.2309 127.81C77.0042 128.332 77.9902 128.593 79.1889 128.593C80.5422 128.593 81.6055 128.216 82.3789 127.462C83.1715 126.708 83.5679 125.654 83.5679 124.301C83.5679 123.412 83.3842 122.648 83.0169 122.01C82.6689 121.353 82.1662 120.85 81.5089 120.502C80.8515 120.135 80.0685 119.951 79.1599 119.951C78.2512 119.951 77.4392 120.144 76.7239 120.531C76.0085 120.918 75.4962 121.449 75.1869 122.126H71.9389L73.3309 110.41H85.3949V113.281H76.1149L75.2449 120.328L74.7519 119.893C75.0805 119.313 75.4962 118.839 75.9989 118.472C76.5015 118.085 77.0815 117.795 77.7389 117.602C78.4155 117.389 79.1309 117.283 79.8849 117.283C81.2769 117.283 82.4852 117.583 83.5099 118.182C84.5539 118.781 85.3659 119.613 85.9459 120.676C86.5259 121.739 86.8159 122.948 86.8159 124.301C86.8159 125.712 86.4969 126.959 85.8589 128.042C85.2209 129.125 84.3315 129.966 83.1909 130.565C82.0502 131.164 80.7162 131.464 79.1889 131.464ZM93.214 120.067C91.996 120.067 90.9906 119.642 90.198 118.791C89.4246 117.921 89.038 116.703 89.038 115.137C89.038 113.532 89.4246 112.305 90.198 111.454C90.9906 110.603 91.996 110.178 93.214 110.178C94.4513 110.178 95.4566 110.603 96.23 111.454C97.0033 112.305 97.39 113.532 97.39 115.137C97.39 116.703 97.0033 117.921 96.23 118.791C95.4566 119.642 94.4513 120.067 93.214 120.067ZM93.214 118.617C94.026 118.617 94.6446 118.317 95.07 117.718C95.4953 117.119 95.708 116.258 95.708 115.137C95.708 114.016 95.4953 113.155 95.07 112.556C94.6446 111.957 94.026 111.657 93.214 111.657C92.4213 111.657 91.8026 111.957 91.358 112.556C90.9326 113.155 90.72 114.016 90.72 115.137C90.72 116.258 90.9326 117.119 91.358 117.718C91.8026 118.317 92.4213 118.617 93.214 118.617ZM104.234 131.232C103.016 131.232 102.011 130.807 101.218 129.956C100.445 129.086 100.058 127.858 100.058 126.273C100.058 124.688 100.445 123.47 101.218 122.619C102.011 121.768 103.016 121.343 104.234 121.343C105.471 121.343 106.477 121.768 107.25 122.619C108.023 123.47 108.41 124.688 108.41 126.273C108.41 127.858 108.023 129.086 107.25 129.956C106.477 130.807 105.471 131.232 104.234 131.232ZM104.234 129.753C105.046 129.753 105.665 129.453 106.09 128.854C106.515 128.255 106.728 127.394 106.728 126.273C106.728 125.152 106.515 124.291 106.09 123.692C105.665 123.093 105.046 122.793 104.234 122.793C103.441 122.793 102.823 123.093 102.378 123.692C101.953 124.291 101.74 125.152 101.74 126.273C101.74 127.394 101.953 128.255 102.378 128.854C102.823 129.453 103.441 129.753 104.234 129.753ZM90.604 131L105.017 110.41H106.844L92.46 131H90.604Z" fill="white"/>
<g filter="url(#filter2_b_208_14233)">
<path d="M28 150C28 146.134 31.134 143 35 143C38.866 143 42 146.134 42 150C42 153.866 38.866 157 35 157C31.134 157 28 153.866 28 150Z" fill="#0E0D0D" fill-opacity="0.4"/>
<path d="M32.375 152.625L37.625 147.375M37.625 147.375H33.6875M37.625 147.375V151.312" stroke="#6FCF97" stroke-width="0.7875" stroke-linecap="round" stroke-linejoin="round"/>
</g>
<path d="M49.744 154.192C49.104 154.192 48.556 154.048 48.1 153.76C47.652 153.464 47.308 153.032 47.068 152.464C46.836 151.896 46.72 151.208 46.72 150.4C46.72 149.696 46.776 149.036 46.888 148.42C47.008 147.804 47.196 147.264 47.452 146.8C47.716 146.328 48.06 145.96 48.484 145.696C48.916 145.424 49.448 145.288 50.08 145.288C50.84 145.288 51.428 145.476 51.844 145.852C52.26 146.22 52.552 146.704 52.72 147.304L51.64 147.4C51.544 147.064 51.376 146.796 51.136 146.596C50.904 146.396 50.552 146.296 50.08 146.296C49.376 146.296 48.82 146.596 48.412 147.196C48.012 147.796 47.8 148.704 47.776 149.92L47.56 149.872C47.648 149.584 47.8 149.32 48.016 149.08C48.24 148.832 48.512 148.636 48.832 148.492C49.16 148.34 49.528 148.264 49.936 148.264C50.496 148.264 50.988 148.384 51.412 148.624C51.836 148.864 52.164 149.204 52.396 149.644C52.636 150.076 52.756 150.584 52.756 151.168C52.756 151.792 52.628 152.332 52.372 152.788C52.116 153.236 51.76 153.584 51.304 153.832C50.856 154.072 50.336 154.192 49.744 154.192ZM49.768 153.184C50.328 153.184 50.784 153.008 51.136 152.656C51.496 152.296 51.676 151.8 51.676 151.168C51.676 150.776 51.6 150.436 51.448 150.148C51.296 149.86 51.084 149.64 50.812 149.488C50.54 149.328 50.224 149.248 49.864 149.248C49.48 149.248 49.136 149.328 48.832 149.488C48.528 149.64 48.288 149.86 48.112 150.148C47.936 150.436 47.848 150.776 47.848 151.168C47.848 151.56 47.924 151.908 48.076 152.212C48.236 152.516 48.46 152.756 48.748 152.932C49.036 153.1 49.376 153.184 49.768 153.184ZM53.6923 154V152.644H55.0483V154H53.6923ZM55.9727 154C55.9727 153.4 56.0647 152.86 56.2487 152.38C56.4407 151.892 56.7727 151.428 57.2447 150.988C57.7247 150.548 58.3887 150.104 59.2367 149.656C59.6287 149.448 59.9447 149.256 60.1847 149.08C60.4247 148.904 60.6007 148.716 60.7127 148.516C60.8247 148.316 60.8807 148.072 60.8807 147.784C60.8807 147.488 60.8167 147.232 60.6887 147.016C60.5607 146.792 60.3687 146.616 60.1127 146.488C59.8647 146.36 59.5527 146.296 59.1767 146.296C58.5767 146.296 58.1007 146.452 57.7487 146.764C57.4047 147.076 57.1887 147.52 57.1007 148.096L56.0207 148.024C56.1167 147.192 56.4367 146.528 56.9807 146.032C57.5247 145.536 58.2567 145.288 59.1767 145.288C59.7607 145.288 60.2607 145.392 60.6767 145.6C61.0927 145.808 61.4087 146.1 61.6247 146.476C61.8487 146.844 61.9607 147.272 61.9607 147.76C61.9607 148.192 61.8887 148.568 61.7447 148.888C61.6007 149.2 61.3567 149.492 61.0127 149.764C60.6767 150.036 60.2127 150.328 59.6207 150.64C58.8527 151.048 58.2687 151.46 57.8687 151.876C57.4767 152.292 57.2687 152.664 57.2447 152.992H61.9607V154H55.9727ZM66.0663 154.192C65.4663 154.192 64.9463 154.092 64.5063 153.892C64.0743 153.692 63.7303 153.412 63.4743 153.052C63.2263 152.692 63.0823 152.276 63.0423 151.804L64.1223 151.732C64.1863 152.212 64.3903 152.576 64.7343 152.824C65.0863 153.064 65.5303 153.184 66.0663 153.184C66.6663 153.184 67.1423 153.016 67.4943 152.68C67.8463 152.336 68.0223 151.864 68.0223 151.264C68.0223 150.864 67.9423 150.52 67.7823 150.232C67.6303 149.936 67.4063 149.708 67.1103 149.548C66.8143 149.388 66.4583 149.308 66.0423 149.308C65.6503 149.308 65.2943 149.392 64.9743 149.56C64.6543 149.728 64.4263 149.964 64.2903 150.268H63.1863L63.7503 145.48H68.5263V146.488H64.6983L64.3143 149.632L64.1223 149.44C64.2503 149.192 64.4183 148.988 64.6263 148.828C64.8423 148.66 65.0863 148.536 65.3583 148.456C65.6383 148.368 65.9303 148.324 66.2343 148.324C66.8023 148.324 67.3023 148.452 67.7343 148.708C68.1663 148.956 68.5023 149.304 68.7423 149.752C68.9823 150.192 69.1023 150.696 69.1023 151.264C69.1023 151.832 68.9743 152.34 68.7183 152.788C68.4623 153.228 68.1063 153.572 67.6503 153.82C67.1943 154.068 66.6663 154.192 66.0663 154.192ZM71.8861 149.608C71.3501 149.608 70.9061 149.428 70.5541 149.068C70.2101 148.7 70.0381 148.176 70.0381 147.496C70.0381 146.808 70.2101 146.284 70.5541 145.924C70.9061 145.564 71.3501 145.384 71.8861 145.384C72.4301 145.384 72.8741 145.564 73.2181 145.924C73.5621 146.284 73.7341 146.808 73.7341 147.496C73.7341 148.176 73.5621 148.7 73.2181 149.068C72.8741 149.428 72.4301 149.608 71.8861 149.608ZM71.8861 148.864C72.2141 148.864 72.4581 148.744 72.6181 148.504C72.7861 148.264 72.8701 147.928 72.8701 147.496C72.8701 147.064 72.7861 146.728 72.6181 146.488C72.4581 146.248 72.2141 146.128 71.8861 146.128C71.5661 146.128 71.3221 146.248 71.1541 146.488C70.9861 146.728 70.9021 147.064 70.9021 147.496C70.9021 147.928 70.9861 148.264 71.1541 148.504C71.3221 148.744 71.5661 148.864 71.8861 148.864ZM76.7581 154.096C76.2221 154.096 75.7781 153.916 75.4261 153.556C75.0821 153.188 74.9101 152.664 74.9101 151.984C74.9101 151.296 75.0821 150.772 75.4261 150.412C75.7781 150.052 76.2221 149.872 76.7581 149.872C77.3021 149.872 77.7461 150.052 78.0901 150.412C78.4341 150.772 78.6061 151.296 78.6061 151.984C78.6061 152.664 78.4341 153.188 78.0901 153.556C77.7461 153.916 77.3021 154.096 76.7581 154.096ZM76.7581 153.352C77.0861 153.352 77.3301 153.232 77.4901 152.992C77.6581 152.752 77.7421 152.416 77.7421 151.984C77.7421 151.552 77.6581 151.216 77.4901 150.976C77.3301 150.736 77.0861 150.616 76.7581 150.616C76.4381 150.616 76.1941 150.736 76.0261 150.976C75.8581 151.216 75.7741 151.552 75.7741 151.984C75.7741 152.416 75.8581 152.752 76.0261 152.992C76.1941 153.232 76.4381 153.352 76.7581 153.352ZM70.9021 154L76.7821 145.48H77.7421L71.8621 154H70.9021Z" fill="#6FCF97"/>
<line opacity="0.1" x1="12" y1="208.75" x2="376" y2="208.75" stroke="white" stroke-width="0.5" stroke-dasharray="8 8"/>
<path d="M12 250C14.7687 247.109 21.2832 241.616 25.1919 242.773C30.0779 244.218 29.1007 245.664 36.4295 242.773C43.7584 239.882 48.1557 230.486 53.5302 231.209C58.9047 231.932 63.7906 217.477 68.6765 217.477C73.5624 217.477 74.051 221.091 76.9825 224.704C79.9141 228.318 80.8913 225.427 82.357 222.536C83.8228 219.645 85.2886 216.032 86.2658 215.309C87.243 214.586 89.6859 217.477 91.1517 215.309C92.6174 213.141 94.0832 210.973 96.0376 211.696C97.9919 212.418 100.435 215.309 102.389 215.309C104.344 215.309 111.184 208.805 114.115 208.082C117.047 207.359 119.001 211.696 122.421 211.696C125.842 211.696 128.773 202.3 131.705 201.577C134.636 200.855 135.613 203.023 140.011 196.518C144.408 190.014 149.783 192.182 151.737 192.182C153.691 192.182 153.203 201.577 155.646 203.746C158.089 205.914 161.509 197.964 169.815 179.173C178.121 160.382 188.381 183.509 193.267 181.341C198.153 179.173 204.505 173.391 206.948 181.341C209.391 189.291 212.322 197.964 219.162 198.686C226.003 199.409 224.048 191.459 228.934 189.291C233.82 187.123 237.24 197.964 245.058 192.182C252.875 186.4 255.807 175.559 266.556 169.777C277.305 163.995 286.099 171.945 298.803 142.314C311.506 112.682 322.255 142.314 332.027 142.314C341.799 142.314 345.707 130.027 353.525 123.523C361.342 117.018 367.694 104.009 376 107.623" stroke="url(#paint1_linear_208_14233)" stroke-width="2.18994" stroke-linecap="round"/>
<circle cx="134.5" cy="200.5" r="4.125" fill="white" stroke="#6EACF1" stroke-width="2.75"/>
<circle cx="272.5" cy="167.5" r="4.125" fill="white" stroke="#6EACF1" stroke-width="2.75"/>
<g filter="url(#filter3_f_208_14233)">
<mask id="mask0_208_14233" style="mask-type:alpha" maskUnits="userSpaceOnUse" x="10" y="105" width="368" height="147">
<g style="mix-blend-mode:plus-lighter">
<path d="M12 250C14.7687 247.109 21.2832 241.616 25.1919 242.773C30.0779 244.218 29.1007 245.664 36.4295 242.773C43.7584 239.882 48.1557 230.486 53.5302 231.209C58.9047 231.932 63.7906 217.477 68.6765 217.477C73.5624 217.477 74.051 221.091 76.9825 224.704C79.9141 228.318 80.8913 225.427 82.357 222.536C83.8228 219.645 85.2886 216.032 86.2658 215.309C87.243 214.586 89.6859 217.477 91.1517 215.309C92.6174 213.141 94.0832 210.973 96.0376 211.696C97.9919 212.418 100.435 215.309 102.389 215.309C104.344 215.309 111.184 208.805 114.115 208.082C117.047 207.359 119.001 211.696 122.421 211.696C125.842 211.696 128.773 202.3 131.705 201.577C134.636 200.855 135.613 203.023 140.011 196.518C144.408 190.014 149.783 192.182 151.737 192.182C153.691 192.182 153.203 201.577 155.646 203.746C158.089 205.914 161.509 197.964 169.815 179.173C178.121 160.382 188.381 183.509 193.267 181.341C198.153 179.173 204.505 173.391 206.948 181.341C209.391 189.291 212.322 197.964 219.162 198.686C226.003 199.409 224.048 191.459 228.934 189.291C233.82 187.123 237.24 197.964 245.058 192.182C252.875 186.4 255.807 175.559 266.556 169.777C277.305 163.995 286.099 171.945 298.803 142.314C311.506 112.682 322.255 142.314 332.027 142.314C341.799 142.314 345.707 130.027 353.525 123.523C361.342 117.018 367.694 104.009 376 107.623" stroke="url(#paint2_linear_208_14233)" stroke-width="2.18994" stroke-linecap="round"/>
</g>
</mask>
<g mask="url(#mask0_208_14233)">
<g style="mix-blend-mode:color-dodge">
<rect x="133" y="147" width="139" height="89" fill="url(#paint3_linear_208_14233)"/>
</g>
</g>
</g>
</g>
<rect x="12.515" y="12.515" width="362.97" height="248.97" rx="15.485" stroke="url(#paint4_linear_208_14233)" stroke-width="1.0301"/>
</g>
<g filter="url(#filter4_bi_208_14233)">
<g clip-path="url(#clip3_208_14233)">
<rect x="12" y="274" width="364" height="250" rx="16" fill="url(#paint5_linear_208_14233)" fill-opacity="0.4"/>
<rect width="48" height="48" transform="translate(28 286)" fill="#007F88"/>
<g clip-path="url(#clip4_208_14233)">
<path d="M31.4706 292.013C31.198 292.033 30.9882 292.073 31 292.102C31.1087 292.342 31.7809 293.75 31.7901 293.758C31.7993 293.767 31.9555 293.777 32.1393 293.784C32.9539 293.812 33.5986 293.959 34.2953 294.278C34.7961 294.506 35.1666 294.751 35.5525 295.106C36.1206 295.63 36.4912 296.211 36.7086 296.923C36.7331 297.005 36.753 297.079 36.753 297.09C36.753 297.106 36.629 297.109 36.0808 297.109C35.7102 297.109 35.3917 297.114 35.3718 297.121C35.3427 297.131 35.2662 297.284 34.9476 297.959C34.7333 298.414 34.5556 298.796 34.5526 298.809C34.5419 298.845 34.6705 298.878 34.9921 298.922C35.0579 298.932 35.453 298.942 35.92 298.947L36.7331 298.956L36.6841 299.111C36.1359 300.83 34.4347 302.031 32.3506 302.176C32.2327 302.183 32.078 302.19 32.006 302.19H31.8759L31.4747 303.043C31.1301 303.772 31.0765 303.897 31.0995 303.904C31.2036 303.939 31.4364 303.952 31.9754 303.952C32.6645 303.952 32.9998 303.924 33.568 303.816C35.8879 303.376 37.8158 302.012 38.6886 300.189C38.857 299.838 39.0546 299.26 39.0898 299.018L39.1005 298.949H40.8416L40.8477 298.98C40.9733 299.549 41.1096 299.932 41.3454 300.385C42.0544 301.75 43.3835 302.864 45.0297 303.475C46.0293 303.845 47.1 304.023 48.1765 303.997C48.6266 303.985 48.985 303.938 48.9666 303.894C48.9513 303.857 48.1887 302.239 48.1841 302.235C48.1795 302.231 48.0218 302.225 47.8304 302.218C47.2929 302.198 46.8886 302.14 46.4323 302.02C45.7295 301.833 45.0342 301.495 44.5014 301.082C43.8307 300.559 43.3452 299.91 43.088 299.189C43.0589 299.107 43.0298 299.021 43.0252 298.995L43.0145 298.95L43.6699 298.946C44.0297 298.943 44.336 298.936 44.3482 298.93C44.3681 298.92 45.1522 297.277 45.1522 297.245C45.1522 297.223 44.9546 297.169 44.7755 297.143C44.6438 297.123 44.4769 297.117 43.8107 297.113L43.0038 297.106L43.0344 297.005C43.4815 295.542 44.8536 294.38 46.6222 293.968C47.0127 293.877 47.3924 293.831 47.8855 293.812C48.1795 293.801 48.2163 293.797 48.2346 293.774C48.2469 293.758 48.4276 293.383 48.6358 292.94C48.8916 292.398 49.0095 292.131 48.9988 292.124C48.9651 292.107 48.7507 292.071 48.5822 292.056C48.3372 292.032 47.6221 292.036 47.3067 292.061C45.5028 292.21 43.8766 292.882 42.6577 293.981C41.9135 294.652 41.3913 295.405 41.0697 296.274C40.9871 296.493 40.8875 296.838 40.8569 297.005L40.8385 297.109H39.127L39.1209 297.076C39.1163 297.059 39.0994 296.978 39.0811 296.896C38.8284 295.736 38.1148 294.608 37.1072 293.777C35.9603 292.83 34.5301 292.237 32.9559 292.057C32.4827 292.003 31.8728 291.985 31.4706 292.013Z" fill="white"/>
</g>
<path opacity="0.7" d="M89.116 304V295.48H89.932V303.592L89.56 303.208H94.3V304H89.116ZM97.8536 304.144C97.2776 304.144 96.7736 304.008 96.3416 303.736C95.9176 303.464 95.5896 303.08 95.3576 302.584C95.1256 302.08 95.0096 301.492 95.0096 300.82C95.0096 300.14 95.1256 299.552 95.3576 299.056C95.5896 298.56 95.9176 298.176 96.3416 297.904C96.7736 297.632 97.2776 297.496 97.8536 297.496C98.4296 297.496 98.9296 297.632 99.3536 297.904C99.7776 298.176 100.106 298.56 100.338 299.056C100.57 299.552 100.686 300.14 100.686 300.82C100.686 301.492 100.57 302.08 100.338 302.584C100.106 303.08 99.7776 303.464 99.3536 303.736C98.9296 304.008 98.4296 304.144 97.8536 304.144ZM97.8536 303.388C98.4776 303.388 98.9656 303.16 99.3176 302.704C99.6776 302.24 99.8576 301.612 99.8576 300.82C99.8576 300.028 99.6776 299.404 99.3176 298.948C98.9656 298.484 98.4776 298.252 97.8536 298.252C97.2296 298.252 96.7376 298.484 96.3776 298.948C96.0176 299.404 95.8376 300.028 95.8376 300.82C95.8376 301.612 96.0176 302.24 96.3776 302.704C96.7376 303.16 97.2296 303.388 97.8536 303.388ZM102.214 304V297.64H102.898L102.946 299.38L102.838 299.32C102.942 298.752 103.13 298.332 103.402 298.06C103.674 297.78 104.05 297.64 104.53 297.64H105.082V298.408H104.506C104.186 298.408 103.914 298.48 103.69 298.624C103.466 298.76 103.294 298.956 103.174 299.212C103.062 299.468 103.006 299.772 103.006 300.124V304H102.214ZM108.706 304.144C108.098 304.144 107.582 304.004 107.158 303.724C106.734 303.436 106.406 303.044 106.174 302.548C105.95 302.044 105.838 301.468 105.838 300.82C105.838 300.172 105.95 299.6 106.174 299.104C106.398 298.6 106.718 298.208 107.134 297.928C107.558 297.64 108.066 297.496 108.658 297.496C109.226 297.496 109.718 297.632 110.134 297.904C110.55 298.176 110.866 298.56 111.082 299.056C111.306 299.552 111.418 300.132 111.418 300.796V301.048H106.666C106.698 301.8 106.894 302.38 107.254 302.788C107.614 303.188 108.098 303.388 108.706 303.388C109.17 303.388 109.55 303.276 109.846 303.052C110.142 302.828 110.346 302.532 110.458 302.164L111.31 302.224C111.15 302.784 110.842 303.244 110.386 303.604C109.93 303.964 109.37 304.144 108.706 304.144ZM106.666 300.34H110.554C110.514 299.66 110.326 299.144 109.99 298.792C109.654 298.432 109.21 298.252 108.658 298.252C108.106 298.252 107.654 298.432 107.302 298.792C106.95 299.152 106.738 299.668 106.666 300.34ZM112.937 304V297.64H113.657L113.693 299.356L113.585 299.26C113.633 298.908 113.749 298.6 113.933 298.336C114.117 298.072 114.349 297.868 114.629 297.724C114.909 297.572 115.221 297.496 115.565 297.496C116.085 297.496 116.517 297.664 116.861 298C117.205 298.328 117.413 298.784 117.485 299.368L117.317 299.344C117.373 298.96 117.489 298.632 117.665 298.36C117.849 298.08 118.085 297.868 118.373 297.724C118.661 297.572 118.985 297.496 119.345 297.496C119.769 297.496 120.133 297.596 120.437 297.796C120.741 297.988 120.973 298.264 121.133 298.624C121.293 298.984 121.373 299.416 121.373 299.92V304H120.581V300.16C120.581 299.528 120.457 299.044 120.209 298.708C119.969 298.372 119.621 298.204 119.165 298.204C118.845 298.204 118.561 298.288 118.313 298.456C118.073 298.624 117.881 298.86 117.737 299.164C117.601 299.468 117.533 299.824 117.533 300.232V304H116.741V300.196C116.741 299.58 116.629 299.096 116.405 298.744C116.189 298.384 115.845 298.204 115.373 298.204C115.053 298.204 114.769 298.288 114.521 298.456C114.273 298.624 114.077 298.856 113.933 299.152C113.797 299.448 113.729 299.796 113.729 300.196V304H112.937ZM126.343 304V297.64H127.135V304H126.343ZM126.319 296.584V295.516H127.159V296.584H126.319ZM128.945 305.8V297.64H129.665L129.689 299.248L129.557 299.188C129.717 298.636 129.993 298.216 130.385 297.928C130.777 297.64 131.233 297.496 131.753 297.496C132.353 297.496 132.849 297.648 133.241 297.952C133.641 298.248 133.941 298.648 134.141 299.152C134.349 299.648 134.453 300.204 134.453 300.82C134.453 301.436 134.353 301.996 134.153 302.5C133.953 302.996 133.653 303.396 133.253 303.7C132.853 303.996 132.353 304.144 131.753 304.144C131.401 304.144 131.073 304.076 130.769 303.94C130.473 303.796 130.221 303.604 130.013 303.364C129.813 303.124 129.677 302.852 129.605 302.548L129.737 302.392V305.8H128.945ZM131.693 303.388C132.285 303.388 132.753 303.16 133.097 302.704C133.441 302.248 133.613 301.62 133.613 300.82C133.613 300.02 133.441 299.392 133.097 298.936C132.753 298.48 132.281 298.252 131.681 298.252C131.289 298.252 130.945 298.356 130.649 298.564C130.361 298.764 130.137 299.056 129.977 299.44C129.817 299.824 129.737 300.284 129.737 300.82C129.737 301.356 129.817 301.816 129.977 302.2C130.137 302.584 130.365 302.88 130.661 303.088C130.957 303.288 131.301 303.388 131.693 303.388ZM138.256 304.144C137.704 304.144 137.232 304.056 136.84 303.88C136.456 303.696 136.156 303.444 135.94 303.124C135.724 302.804 135.6 302.444 135.568 302.044L136.396 301.984C136.444 302.408 136.62 302.748 136.924 303.004C137.236 303.26 137.68 303.388 138.256 303.388C138.76 303.388 139.152 303.304 139.432 303.136C139.712 302.968 139.852 302.708 139.852 302.356C139.852 302.164 139.808 302.004 139.72 301.876C139.64 301.74 139.472 301.624 139.216 301.528C138.96 301.424 138.576 301.328 138.064 301.24C137.464 301.128 136.996 300.996 136.66 300.844C136.324 300.684 136.088 300.488 135.952 300.256C135.816 300.016 135.748 299.732 135.748 299.404C135.748 298.836 135.952 298.376 136.36 298.024C136.768 297.672 137.336 297.496 138.064 297.496C138.56 297.496 138.98 297.588 139.324 297.772C139.676 297.956 139.952 298.2 140.152 298.504C140.352 298.8 140.484 299.128 140.548 299.488L139.72 299.56C139.672 299.312 139.58 299.092 139.444 298.9C139.308 298.7 139.124 298.544 138.892 298.432C138.66 298.312 138.38 298.252 138.052 298.252C137.572 298.252 137.204 298.356 136.948 298.564C136.7 298.764 136.576 299.032 136.576 299.368C136.576 299.6 136.628 299.792 136.732 299.944C136.836 300.088 137.008 300.208 137.248 300.304C137.488 300.392 137.82 300.472 138.244 300.544C138.876 300.648 139.368 300.78 139.72 300.94C140.08 301.092 140.332 301.284 140.476 301.516C140.62 301.74 140.692 302.016 140.692 302.344C140.692 302.728 140.588 303.056 140.38 303.328C140.172 303.592 139.884 303.796 139.516 303.94C139.156 304.076 138.736 304.144 138.256 304.144ZM144.228 304.144C143.596 304.144 143.088 303.932 142.704 303.508C142.328 303.076 142.14 302.484 142.14 301.732V297.64H142.932V301.492C142.932 302.148 143.056 302.636 143.304 302.956C143.56 303.276 143.936 303.436 144.432 303.436C144.984 303.436 145.416 303.256 145.728 302.896C146.048 302.536 146.208 302.048 146.208 301.432V297.64H147V304H146.256L146.244 302.368L146.364 302.428C146.26 302.972 146.02 303.396 145.644 303.7C145.276 303.996 144.804 304.144 144.228 304.144ZM148.972 304V297.64H149.692L149.728 299.356L149.62 299.26C149.668 298.908 149.784 298.6 149.968 298.336C150.152 298.072 150.384 297.868 150.664 297.724C150.944 297.572 151.256 297.496 151.6 297.496C152.12 297.496 152.552 297.664 152.896 298C153.24 298.328 153.448 298.784 153.52 299.368L153.352 299.344C153.408 298.96 153.524 298.632 153.7 298.36C153.884 298.08 154.12 297.868 154.408 297.724C154.696 297.572 155.02 297.496 155.38 297.496C155.804 297.496 156.168 297.596 156.472 297.796C156.776 297.988 157.008 298.264 157.168 298.624C157.328 298.984 157.408 299.416 157.408 299.92V304H156.616V300.16C156.616 299.528 156.492 299.044 156.244 298.708C156.004 298.372 155.656 298.204 155.2 298.204C154.88 298.204 154.596 298.288 154.348 298.456C154.108 298.624 153.916 298.86 153.772 299.164C153.636 299.468 153.568 299.824 153.568 300.232V304H152.776V300.196C152.776 299.58 152.664 299.096 152.44 298.744C152.224 298.384 151.88 298.204 151.408 298.204C151.088 298.204 150.804 298.288 150.556 298.456C150.308 298.624 150.112 298.856 149.968 299.152C149.832 299.448 149.764 299.796 149.764 300.196V304H148.972Z" fill="white"/>
<g filter="url(#filter5_i_208_14233)">
<rect x="320.5" y="290.5" width="39" height="39" rx="19.5" stroke="white"/>
</g>
</g>
<rect x="12.515" y="274.515" width="362.97" height="248.97" rx="15.485" stroke="url(#paint6_linear_208_14233)" stroke-width="1.0301"/>
</g>
</g>
</g>
<defs>
<filter id="filter0_b_208_14233" x="-86.5282" y="-86.5282" width="561.056" height="471.056" filterUnits="userSpaceOnUse" color-interpolation-filters="sRGB">
<feFlood flood-opacity="0" result="BackgroundImageFix"/>
<feGaussianBlur in="BackgroundImageFix" stdDeviation="43.2641"/>
<feComposite in2="SourceAlpha" operator="in" result="effect1_backgroundBlur_208_14233"/>
<feBlend mode="normal" in="SourceGraphic" in2="effect1_backgroundBlur_208_14233" result="shape"/>
</filter>
<filter id="filter1_bi_208_14233" x="-74.5282" y="-74.5282" width="537.056" height="423.056" filterUnits="userSpaceOnUse" color-interpolation-filters="sRGB">
<feFlood flood-opacity="0" result="BackgroundImageFix"/>
<feGaussianBlur in="BackgroundImageFix" stdDeviation="43.2641"/>
<feComposite in2="SourceAlpha" operator="in" result="effect1_backgroundBlur_208_14233"/>
<feBlend mode="normal" in="SourceGraphic" in2="effect1_backgroundBlur_208_14233" result="shape"/>
<feColorMatrix in="SourceAlpha" type="matrix" values="0 0 0 0 0 0 0 0 0 0 0 0 0 0 0 0 0 0 127 0" result="hardAlpha"/>
<feOffset dx="-2" dy="-2"/>
<feGaussianBlur stdDeviation="4"/>
<feComposite in2="hardAlpha" operator="arithmetic" k2="-1" k3="1"/>
<feColorMatrix type="matrix" values="0 0 0 0 1 0 0 0 0 1 0 0 0 0 1 0 0 0 0.06 0"/>
<feBlend mode="normal" in2="shape" result="effect2_innerShadow_208_14233"/>
</filter>
<filter id="filter2_b_208_14233" x="-32.5698" y="82.4302" width="135.14" height="135.14" filterUnits="userSpaceOnUse" color-interpolation-filters="sRGB">
<feFlood flood-opacity="0" result="BackgroundImageFix"/>
<feGaussianBlur in="BackgroundImageFix" stdDeviation="30.2849"/>
<feComposite in2="SourceAlpha" operator="in" result="effect1_backgroundBlur_208_14233"/>
<feBlend mode="normal" in="SourceGraphic" in2="effect1_backgroundBlur_208_14233" result="shape"/>
</filter>
<filter id="filter3_f_208_14233" x="127" y="141" width="151" height="101" filterUnits="userSpaceOnUse" color-interpolation-filters="sRGB">
<feFlood flood-opacity="0" result="BackgroundImageFix"/>
<feBlend mode="normal" in="SourceGraphic" in2="BackgroundImageFix" result="shape"/>
<feGaussianBlur stdDeviation="3" result="effect1_foregroundBlur_208_14233"/>
</filter>
<filter id="filter4_bi_208_14233" x="-74.5282" y="187.472" width="537.056" height="423.056" filterUnits="userSpaceOnUse" color-interpolation-filters="sRGB">
<feFlood flood-opacity="0" result="BackgroundImageFix"/>
<feGaussianBlur in="BackgroundImageFix" stdDeviation="43.2641"/>
<feComposite in2="SourceAlpha" operator="in" result="effect1_backgroundBlur_208_14233"/>
<feBlend mode="normal" in="SourceGraphic" in2="effect1_backgroundBlur_208_14233" result="shape"/>
<feColorMatrix in="SourceAlpha" type="matrix" values="0 0 0 0 0 0 0 0 0 0 0 0 0 0 0 0 0 0 127 0" result="hardAlpha"/>
<feOffset dx="-2" dy="-2"/>
<feGaussianBlur stdDeviation="4"/>
<feComposite in2="hardAlpha" operator="arithmetic" k2="-1" k3="1"/>
<feColorMatrix type="matrix" values="0 0 0 0 1 0 0 0 0 1 0 0 0 0 1 0 0 0 0.06 0"/>
<feBlend mode="normal" in2="shape" result="effect2_innerShadow_208_14233"/>
</filter>
<filter id="filter5_i_208_14233" x="320" y="280" width="40" height="50" filterUnits="userSpaceOnUse" color-interpolation-filters="sRGB">
<feFlood flood-opacity="0" result="BackgroundImageFix"/>
<feBlend mode="normal" in="SourceGraphic" in2="BackgroundImageFix" result="shape"/>
<feColorMatrix in="SourceAlpha" type="matrix" values="0 0 0 0 0 0 0 0 0 0 0 0 0 0 0 0 0 0 127 0" result="hardAlpha"/>
<feMorphology radius="8" operator="erode" in="SourceAlpha" result="effect1_innerShadow_208_14233"/>
<feOffset dy="-10"/>
<feGaussianBlur stdDeviation="8"/>
<feComposite in2="hardAlpha" operator="arithmetic" k2="-1" k3="1"/>
<feColorMatrix type="matrix" values="0 0 0 0 1 0 0 0 0 1 0 0 0 0 1 0 0 0 0.24 0"/>
<feBlend mode="normal" in2="shape" result="effect1_innerShadow_208_14233"/>
</filter>
<linearGradient id="paint0_linear_208_14233" x1="12" y1="-77.0625" x2="382.158" y2="-72.0457" gradientUnits="userSpaceOnUse">
<stop stop-color="white" stop-opacity="0.12"/>
<stop offset="0.5" stop-color="white" stop-opacity="0.22"/>
<stop offset="1" stop-color="white" stop-opacity="0.12"/>
</linearGradient>
<linearGradient id="paint1_linear_208_14233" x1="12" y1="178.5" x2="376" y2="178.5" gradientUnits="userSpaceOnUse">
<stop stop-color="#369FEE"/>
<stop offset="0.5" stop-color="#70B8EF"/>
<stop offset="1" stop-color="#2A32C0"/>
</linearGradient>
<linearGradient id="paint2_linear_208_14233" x1="12" y1="178.5" x2="376" y2="178.5" gradientUnits="userSpaceOnUse">
<stop stop-color="#369FEE"/>
<stop offset="0.5" stop-color="#70B8EF"/>
<stop offset="1" stop-color="#2A32C0"/>
</linearGradient>
<linearGradient id="paint3_linear_208_14233" x1="202.5" y1="89.7481" x2="202.5" y2="304.377" gradientUnits="userSpaceOnUse">
<stop stop-color="white" stop-opacity="0.12"/>
<stop offset="0.5" stop-color="#859BF5"/>
<stop offset="1" stop-color="white" stop-opacity="0.12"/>
</linearGradient>
<linearGradient id="paint4_linear_208_14233" x1="12" y1="3.25749" x2="196.087" y2="323.054" gradientUnits="userSpaceOnUse">
<stop stop-color="white" stop-opacity="0.2"/>
<stop offset="1" stop-color="white" stop-opacity="0.01"/>
</linearGradient>
<linearGradient id="paint5_linear_208_14233" x1="12" y1="184.938" x2="382.158" y2="189.954" gradientUnits="userSpaceOnUse">
<stop stop-color="white" stop-opacity="0.12"/>
<stop offset="0.5" stop-color="white" stop-opacity="0.22"/>
<stop offset="1" stop-color="white" stop-opacity="0.12"/>
</linearGradient>
<linearGradient id="paint6_linear_208_14233" x1="12" y1="265.257" x2="196.087" y2="585.054" gradientUnits="userSpaceOnUse">
<stop stop-color="white" stop-opacity="0.2"/>
<stop offset="1" stop-color="white" stop-opacity="0.01"/>
</linearGradient>
<clipPath id="clip0_208_14233">
<path d="M0 38.4C0 24.9587 0 18.2381 2.61584 13.1042C4.9168 8.58834 8.58834 4.9168 13.1042 2.61584C18.2381 0 24.9587 0 38.4 0H349.6C363.041 0 369.762 0 374.896 2.61584C379.412 4.9168 383.083 8.58834 385.384 13.1042C388 18.2381 388 24.9587 388 38.4V259.6C388 273.041 388 279.762 385.384 284.896C383.083 289.412 379.412 293.083 374.896 295.384C369.762 298 363.041 298 349.6 298H38.4C24.9587 298 18.2381 298 13.1042 295.384C8.58834 293.083 4.9168 289.412 2.61584 284.896C0 279.762 0 273.041 0 259.6V38.4Z" fill="white"/>
</clipPath>
<clipPath id="clip1_208_14233">
<rect x="12" y="12" width="364" height="250" rx="16" fill="white"/>
</clipPath>
<clipPath id="clip2_208_14233">
<rect width="21.4737" height="34" fill="white" transform="translate(41.2632 30)"/>
</clipPath>
<clipPath id="clip3_208_14233">
<rect x="12" y="274" width="364" height="250" rx="16" fill="white"/>
</clipPath>
<clipPath id="clip4_208_14233">
<rect width="18" height="12" fill="white" transform="translate(31 292)"/>
</clipPath>
</defs>
</svg>
