<svg width="392" height="298" viewBox="0 0 392 298" fill="none" xmlns="http://www.w3.org/2000/svg">
<g opacity="0.3">
<path d="M3.80752 30.7978V18.8526H4.57275V30.7978H3.80752ZM6.38319 22.4362C6.3272 21.9634 6.10011 21.5963 5.70194 21.335C5.30377 21.0737 4.81539 20.943 4.23679 20.943C3.81374 20.943 3.44356 21.0115 3.12627 21.1483C2.81209 21.2852 2.56634 21.4734 2.38903 21.7129C2.21483 21.9525 2.12773 22.2247 2.12773 22.5295C2.12773 22.7846 2.18839 23.0039 2.30971 23.1874C2.43413 23.3678 2.59278 23.5187 2.78565 23.64C2.97851 23.7582 3.18071 23.8562 3.39224 23.934C3.60376 24.0086 3.79818 24.0693 3.97549 24.116L4.94604 24.3773C5.1949 24.4426 5.47175 24.5328 5.7766 24.6479C6.08456 24.763 6.37852 24.9201 6.65849 25.1192C6.94156 25.3151 7.17487 25.5671 7.3584 25.8751C7.54193 26.183 7.6337 26.561 7.6337 27.0089C7.6337 27.5253 7.49838 27.9919 7.22775 28.4088C6.96023 28.8256 6.56828 29.1569 6.0519 29.4026C5.53863 29.6484 4.91493 29.7713 4.1808 29.7713C3.49644 29.7713 2.90385 29.6608 2.40303 29.44C1.90531 29.2191 1.51336 28.9111 1.22718 28.5161C0.944102 28.121 0.7839 27.6622 0.746572 27.1396H1.94109C1.97219 27.5004 2.09351 27.7991 2.30504 28.0355C2.51968 28.2688 2.79031 28.443 3.11694 28.5581C3.44667 28.6701 3.80129 28.726 4.1808 28.726C4.62252 28.726 5.01914 28.6545 5.37065 28.5114C5.72216 28.3652 6.00057 28.163 6.20588 27.9048C6.41119 27.6435 6.51384 27.3387 6.51384 26.9903C6.51384 26.673 6.42518 26.4148 6.24787 26.2157C6.07056 26.0166 5.83726 25.8549 5.54796 25.7304C5.25866 25.606 4.94604 25.4971 4.61008 25.4038L3.43423 25.0678C2.68766 24.8532 2.09662 24.5468 1.66112 24.1486C1.22562 23.7505 1.00787 23.2294 1.00787 22.5855C1.00787 22.0505 1.15252 21.5838 1.44182 21.1857C1.73422 20.7844 2.12617 20.4733 2.61767 20.2525C3.11227 20.0285 3.66442 19.9165 4.27412 19.9165C4.89004 19.9165 5.43753 20.0269 5.91658 20.2478C6.39563 20.4655 6.77514 20.7642 7.0551 21.1437C7.33818 21.5232 7.48749 21.954 7.50305 22.4362H6.38319ZM12.5412 29.7339C12.1493 29.7277 11.7573 29.653 11.3654 29.51C10.9734 29.3669 10.6157 29.1258 10.2922 28.7867C9.96868 28.4445 9.70893 27.9826 9.51296 27.4009C9.31698 26.8161 9.21899 26.0819 9.21899 25.1985C9.21899 24.3524 9.29832 23.6027 9.45696 22.9495C9.61561 22.2931 9.8458 21.7409 10.1475 21.293C10.4493 20.8419 10.8132 20.4998 11.2394 20.2665C11.6687 20.0332 12.1524 19.9165 12.6906 19.9165C13.2256 19.9165 13.7015 20.0238 14.1184 20.2385C14.5383 20.45 14.8805 20.7455 15.1449 21.125C15.4093 21.5045 15.5804 21.9416 15.6582 22.4362H14.5197C14.4139 22.0069 14.2086 21.6507 13.9037 21.3677C13.5989 21.0846 13.1945 20.943 12.6906 20.943C11.9502 20.943 11.3669 21.265 10.9408 21.9089C10.5177 22.5528 10.3046 23.4565 10.3015 24.6199H10.3762C10.5504 24.3555 10.7572 24.13 10.9968 23.9433C11.2394 23.7536 11.5069 23.6074 11.7993 23.5047C12.0917 23.4021 12.4013 23.3507 12.7279 23.3507C13.2754 23.3507 13.7762 23.4876 14.2304 23.7613C14.6845 24.032 15.0485 24.4068 15.3222 24.8859C15.596 25.3618 15.7328 25.9077 15.7328 26.5237C15.7328 27.1147 15.6006 27.656 15.3362 28.1475C15.0718 28.6358 14.7001 29.0247 14.221 29.314C13.7451 29.6002 13.1852 29.7401 12.5412 29.7339ZM12.5412 28.7074C12.9332 28.7074 13.2847 28.6094 13.5958 28.4134C13.91 28.2174 14.1573 27.9546 14.3377 27.6249C14.5212 27.2951 14.613 26.9281 14.613 26.5237C14.613 26.1286 14.5243 25.7693 14.347 25.4458C14.1728 25.1192 13.9317 24.8594 13.6238 24.6666C13.3189 24.4737 12.9705 24.3773 12.5786 24.3773C12.2831 24.3773 12.0078 24.4364 11.7527 24.5546C11.4976 24.6697 11.2736 24.8283 11.0808 25.0305C10.891 25.2327 10.7417 25.4645 10.6328 25.7258C10.5239 25.984 10.4695 26.2561 10.4695 26.5423C10.4695 26.9218 10.5582 27.2765 10.7355 27.6062C10.9159 27.9359 11.1616 28.2019 11.4727 28.4041C11.7869 28.6063 12.1431 28.7074 12.5412 28.7074ZM20.6847 29.7339C19.9817 29.7339 19.3829 29.5426 18.8883 29.16C18.3937 28.7743 18.0157 28.2159 17.7544 27.4849C17.4931 26.7507 17.3625 25.8642 17.3625 24.8252C17.3625 23.7925 17.4931 22.9106 17.7544 22.1795C18.0188 21.4454 18.3983 20.8855 18.8929 20.4998C19.3906 20.1109 19.9879 19.9165 20.6847 19.9165C21.3815 19.9165 21.9772 20.1109 22.4718 20.4998C22.9695 20.8855 23.349 21.4454 23.6103 22.1795C23.8747 22.9106 24.0069 23.7925 24.0069 24.8252C24.0069 25.8642 23.8763 26.7507 23.615 27.4849C23.3537 28.2159 22.9757 28.7743 22.4811 29.16C21.9865 29.5426 21.3877 29.7339 20.6847 29.7339ZM20.6847 28.7074C21.3815 28.7074 21.9228 28.3714 22.3085 27.6995C22.6942 27.0276 22.8871 26.0695 22.8871 24.8252C22.8871 23.9978 22.7984 23.2932 22.6211 22.7115C22.4469 22.1298 22.195 21.6865 21.8652 21.3816C21.5386 21.0768 21.1451 20.9244 20.6847 20.9244C19.9941 20.9244 19.4544 21.265 19.0656 21.9462C18.6767 22.6244 18.4823 23.584 18.4823 24.8252C18.4823 25.6527 18.5694 26.3557 18.7436 26.9343C18.9178 27.5129 19.1682 27.953 19.4949 28.2548C19.8246 28.5565 20.2212 28.7074 20.6847 28.7074ZM26.8253 26.9903L26.8066 25.6278H27.0306L30.1662 22.4362H31.5287L28.1877 25.8144H28.0944L26.8253 26.9903ZM25.7987 29.6033V20.0472H26.8999V29.6033H25.7987ZM30.3528 29.6033L27.5532 26.0571L28.3371 25.2918L31.7526 29.6033H30.3528Z" fill="white"/>
<path d="M3.80752 73.1486V61.2035H4.57275V73.1486H3.80752ZM6.38319 64.787C6.3272 64.3142 6.10011 63.9471 5.70194 63.6858C5.30377 63.4245 4.81539 63.2939 4.23679 63.2939C3.81374 63.2939 3.44356 63.3623 3.12627 63.4992C2.81209 63.636 2.56634 63.8242 2.38903 64.0638C2.21483 64.3033 2.12773 64.5755 2.12773 64.8803C2.12773 65.1354 2.18839 65.3547 2.30971 65.5383C2.43413 65.7187 2.59278 65.8695 2.78565 65.9909C2.97851 66.1091 3.18071 66.2071 3.39224 66.2848C3.60376 66.3595 3.79818 66.4201 3.97549 66.4668L4.94604 66.7281C5.1949 66.7934 5.47175 66.8836 5.7766 66.9987C6.08456 67.1138 6.37852 67.2709 6.65849 67.47C6.94156 67.666 7.17487 67.9179 7.3584 68.2259C7.54193 68.5339 7.6337 68.9118 7.6337 69.3598C7.6337 69.8761 7.49838 70.3428 7.22775 70.7596C6.96023 71.1764 6.56828 71.5077 6.0519 71.7535C5.53863 71.9992 4.91493 72.1221 4.1808 72.1221C3.49644 72.1221 2.90385 72.0116 2.40303 71.7908C1.90531 71.5699 1.51336 71.262 1.22718 70.8669C0.944102 70.4718 0.7839 70.013 0.746572 69.4904H1.94109C1.97219 69.8513 2.09351 70.1499 2.30504 70.3863C2.51968 70.6196 2.79031 70.7938 3.11694 70.9089C3.44667 71.0209 3.80129 71.0769 4.1808 71.0769C4.62252 71.0769 5.01914 71.0053 5.37065 70.8622C5.72216 70.716 6.00057 70.5138 6.20588 70.2557C6.41119 69.9944 6.51384 69.6895 6.51384 69.3411C6.51384 69.0238 6.42518 68.7656 6.24787 68.5665C6.07056 68.3674 5.83726 68.2057 5.54796 68.0813C5.25866 67.9568 4.94604 67.848 4.61008 67.7546L3.43423 67.4187C2.68766 67.204 2.09662 66.8976 1.66112 66.4995C1.22562 66.1013 1.00787 65.5802 1.00787 64.9363C1.00787 64.4013 1.15252 63.9347 1.44182 63.5365C1.73422 63.1352 2.12617 62.8242 2.61767 62.6033C3.11227 62.3793 3.66442 62.2673 4.27412 62.2673C4.89004 62.2673 5.43753 62.3778 5.91658 62.5986C6.39563 62.8164 6.77514 63.115 7.0551 63.4945C7.33818 63.874 7.48749 64.3049 7.50305 64.787H6.38319ZM12.3546 72.0848C11.8071 72.0848 11.3141 71.9759 10.8755 71.7581C10.4368 71.5404 10.0853 71.2417 9.82092 70.8622C9.55651 70.4827 9.41186 70.0503 9.38697 69.5651H10.5068C10.5504 69.9975 10.7464 70.3552 11.0948 70.6383C11.4463 70.9182 11.8662 71.0582 12.3546 71.0582C12.7465 71.0582 13.0949 70.9664 13.3998 70.7829C13.7078 70.5994 13.9488 70.3474 14.123 70.027C14.3003 69.7035 14.389 69.338 14.389 68.9305C14.389 68.5136 14.2972 68.1419 14.1137 67.8153C13.9333 67.4856 13.6844 67.2258 13.3671 67.0361C13.0498 66.8463 12.6874 66.7499 12.2799 66.7468C11.9875 66.7437 11.6873 66.7888 11.3794 66.8821C11.0714 66.9723 10.8179 67.0889 10.6188 67.232L9.53629 67.1014L10.1149 62.398H15.0796V63.4245H11.0854L10.7495 66.2428H10.8055C11.0014 66.0873 11.2472 65.9582 11.5427 65.8555C11.8382 65.7529 12.1462 65.7016 12.4666 65.7016C13.0514 65.7016 13.5724 65.8415 14.0297 66.1215C14.4901 66.3984 14.8509 66.7779 15.1122 67.26C15.3767 67.7422 15.5089 68.2928 15.5089 68.9118C15.5089 69.5215 15.372 70.0659 15.0982 70.5449C14.8276 71.0209 14.4543 71.3973 13.9784 71.6741C13.5025 71.9479 12.9612 72.0848 12.3546 72.0848ZM20.4794 72.0848C19.7764 72.0848 19.1776 71.8934 18.683 71.5108C18.1884 71.1251 17.8104 70.5667 17.5491 69.8357C17.2878 69.1016 17.1572 68.215 17.1572 67.176C17.1572 66.1433 17.2878 65.2614 17.5491 64.5304C17.8135 63.7962 18.193 63.2363 18.6876 62.8506C19.1853 62.4618 19.7826 62.2673 20.4794 62.2673C21.1762 62.2673 21.7719 62.4618 22.2665 62.8506C22.7642 63.2363 23.1437 63.7962 23.405 64.5304C23.6694 65.2614 23.8016 66.1433 23.8016 67.176C23.8016 68.215 23.671 69.1016 23.4097 69.8357C23.1484 70.5667 22.7704 71.1251 22.2758 71.5108C21.7812 71.8934 21.1824 72.0848 20.4794 72.0848ZM20.4794 71.0582C21.1762 71.0582 21.7175 70.7223 22.1032 70.0503C22.4889 69.3784 22.6818 68.4203 22.6818 67.176C22.6818 66.3486 22.5931 65.644 22.4158 65.0623C22.2416 64.4806 21.9897 64.0373 21.6599 63.7325C21.3333 63.4276 20.9398 63.2752 20.4794 63.2752C19.7888 63.2752 19.2491 63.6158 18.8603 64.2971C18.4714 64.9752 18.277 65.9349 18.277 67.176C18.277 68.0035 18.3641 68.7065 18.5383 69.2851C18.7125 69.8637 18.9629 70.3039 19.2895 70.6056C19.6193 70.9073 20.0159 71.0582 20.4794 71.0582ZM26.6199 69.3411L26.6013 67.9786H26.8253L29.9609 64.787H31.3234L27.9824 68.1652H27.8891L26.6199 69.3411ZM25.5934 71.9541V62.398H26.6946V71.9541H25.5934ZM30.1475 71.9541L27.3479 68.4079L28.1318 67.6426L31.5473 71.9541H30.1475Z" fill="white"/>
<path d="M3.80752 115.499V103.554H4.57275V115.499H3.80752ZM6.38319 107.138C6.3272 106.665 6.10011 106.298 5.70194 106.037C5.30377 105.775 4.81539 105.645 4.23679 105.645C3.81374 105.645 3.44356 105.713 3.12627 105.85C2.81209 105.987 2.56634 106.175 2.38903 106.415C2.21483 106.654 2.12773 106.926 2.12773 107.231C2.12773 107.486 2.18839 107.706 2.30971 107.889C2.43413 108.07 2.59278 108.22 2.78565 108.342C2.97851 108.46 3.18071 108.558 3.39224 108.636C3.60376 108.71 3.79818 108.771 3.97549 108.818L4.94604 109.079C5.1949 109.144 5.47175 109.234 5.7766 109.35C6.08456 109.465 6.37852 109.622 6.65849 109.821C6.94156 110.017 7.17487 110.269 7.3584 110.577C7.54193 110.885 7.6337 111.263 7.6337 111.711C7.6337 112.227 7.49838 112.694 7.22775 113.11C6.96023 113.527 6.56828 113.859 6.0519 114.104C5.53863 114.35 4.91493 114.473 4.1808 114.473C3.49644 114.473 2.90385 114.362 2.40303 114.142C1.90531 113.921 1.51336 113.613 1.22718 113.218C0.944102 112.823 0.7839 112.364 0.746572 111.841H1.94109C1.97219 112.202 2.09351 112.501 2.30504 112.737C2.51968 112.97 2.79031 113.145 3.11694 113.26C3.44667 113.372 3.80129 113.428 4.1808 113.428C4.62252 113.428 5.01914 113.356 5.37065 113.213C5.72216 113.067 6.00057 112.865 6.20588 112.606C6.41119 112.345 6.51384 112.04 6.51384 111.692C6.51384 111.375 6.42518 111.116 6.24787 110.917C6.07056 110.718 5.83726 110.557 5.54796 110.432C5.25866 110.308 4.94604 110.199 4.61008 110.105L3.43423 109.77C2.68766 109.555 2.09662 109.248 1.66112 108.85C1.22562 108.452 1.00787 107.931 1.00787 107.287C1.00787 106.752 1.15252 106.286 1.44182 105.887C1.73422 105.486 2.12617 105.175 2.61767 104.954C3.11227 104.73 3.66442 104.618 4.27412 104.618C4.89004 104.618 5.43753 104.729 5.91658 104.949C6.39563 105.167 6.77514 105.466 7.0551 105.845C7.33818 106.225 7.48749 106.656 7.50305 107.138H6.38319ZM9.14434 112.345V111.393L13.3438 104.749H14.0344V106.223H13.5678L10.3948 111.244V111.319H16.0501V112.345H9.14434ZM13.6424 114.305V112.056V111.613V104.749H14.7436V114.305H13.6424ZM20.9157 114.436C20.2127 114.436 19.6138 114.244 19.1192 113.862C18.6246 113.476 18.2467 112.918 17.9854 112.187C17.7241 111.452 17.5934 110.566 17.5934 109.527C17.5934 108.494 17.7241 107.612 17.9854 106.881C18.2498 106.147 18.6293 105.587 19.1239 105.201C19.6216 104.813 20.2189 104.618 20.9157 104.618C21.6125 104.618 22.2082 104.813 22.7028 105.201C23.2005 105.587 23.58 106.147 23.8413 106.881C24.1057 107.612 24.2379 108.494 24.2379 109.527C24.2379 110.566 24.1073 111.452 23.846 112.187C23.5847 112.918 23.2067 113.476 22.7121 113.862C22.2175 114.244 21.6187 114.436 20.9157 114.436ZM20.9157 113.409C21.6125 113.409 22.1537 113.073 22.5395 112.401C22.9252 111.729 23.1181 110.771 23.1181 109.527C23.1181 108.699 23.0294 107.995 22.8521 107.413C22.6779 106.831 22.4259 106.388 22.0962 106.083C21.7696 105.778 21.3761 105.626 20.9157 105.626C20.2251 105.626 19.6854 105.967 19.2965 106.648C18.9077 107.326 18.7133 108.286 18.7133 109.527C18.7133 110.354 18.8004 111.057 18.9746 111.636C19.1488 112.215 19.3992 112.655 19.7258 112.956C20.0556 113.258 20.4522 113.409 20.9157 113.409ZM27.0562 111.692L27.0376 110.329H27.2615L30.3971 107.138H31.7596L28.4187 110.516H28.3254L27.0562 111.692ZM26.0297 114.305V104.749H27.1309V114.305H26.0297ZM30.5838 114.305L27.7841 110.759L28.568 109.993L31.9836 114.305H30.5838Z" fill="white"/>
<path d="M3.80752 157.85V145.905H4.57275V157.85H3.80752ZM6.38319 149.489C6.3272 149.016 6.10011 148.649 5.70194 148.387C5.30377 148.126 4.81539 147.996 4.23679 147.996C3.81374 147.996 3.44356 148.064 3.12627 148.201C2.81209 148.338 2.56634 148.526 2.38903 148.765C2.21483 149.005 2.12773 149.277 2.12773 149.582C2.12773 149.837 2.18839 150.056 2.30971 150.24C2.43413 150.42 2.59278 150.571 2.78565 150.693C2.97851 150.811 3.18071 150.909 3.39224 150.986C3.60376 151.061 3.79818 151.122 3.97549 151.168L4.94604 151.43C5.1949 151.495 5.47175 151.585 5.7766 151.7C6.08456 151.815 6.37852 151.973 6.65849 152.172C6.94156 152.368 7.17487 152.62 7.3584 152.928C7.54193 153.236 7.6337 153.613 7.6337 154.061C7.6337 154.578 7.49838 155.044 7.22775 155.461C6.96023 155.878 6.56828 156.209 6.0519 156.455C5.53863 156.701 4.91493 156.824 4.1808 156.824C3.49644 156.824 2.90385 156.713 2.40303 156.492C1.90531 156.272 1.51336 155.964 1.22718 155.569C0.944102 155.174 0.7839 154.715 0.746572 154.192H1.94109C1.97219 154.553 2.09351 154.852 2.30504 155.088C2.51968 155.321 2.79031 155.495 3.11694 155.611C3.44667 155.723 3.80129 155.779 4.1808 155.779C4.62252 155.779 5.01914 155.707 5.37065 155.564C5.72216 155.418 6.00057 155.216 6.20588 154.957C6.41119 154.696 6.51384 154.391 6.51384 154.043C6.51384 153.725 6.42518 153.467 6.24787 153.268C6.07056 153.069 5.83726 152.907 5.54796 152.783C5.25866 152.658 4.94604 152.55 4.61008 152.456L3.43423 152.12C2.68766 151.906 2.09662 151.599 1.66112 151.201C1.22562 150.803 1.00787 150.282 1.00787 149.638C1.00787 149.103 1.15252 148.636 1.44182 148.238C1.73422 147.837 2.12617 147.526 2.61767 147.305C3.11227 147.081 3.66442 146.969 4.27412 146.969C4.89004 146.969 5.43753 147.079 5.91658 147.3C6.39563 147.518 6.77514 147.817 7.0551 148.196C7.33818 148.576 7.48749 149.007 7.50305 149.489H6.38319ZM12.5972 156.786C11.9813 156.786 11.4323 156.681 10.9501 156.469C10.4711 156.258 10.09 155.964 9.80692 155.587C9.52696 155.208 9.37453 154.768 9.34965 154.267H10.5255C10.5504 154.575 10.6561 154.841 10.8428 155.065C11.0294 155.285 11.2736 155.457 11.5754 155.578C11.8771 155.699 12.2115 155.76 12.5786 155.76C12.9892 155.76 13.3531 155.688 13.6704 155.545C13.9877 155.402 14.2366 155.203 14.417 154.948C14.5974 154.693 14.6876 154.397 14.6876 154.061C14.6876 153.71 14.6005 153.4 14.4263 153.133C14.2521 152.862 13.9971 152.651 13.6611 152.498C13.3251 152.346 12.9145 152.27 12.4293 152.27H11.664V151.243H12.4293C12.8088 151.243 13.1416 151.175 13.4278 151.038C13.7171 150.901 13.9426 150.708 14.1044 150.459C14.2692 150.21 14.3517 149.918 14.3517 149.582C14.3517 149.258 14.2801 148.977 14.137 148.737C13.9939 148.498 13.7917 148.311 13.5304 148.178C13.2723 148.044 12.9674 147.977 12.6159 147.977C12.2862 147.977 11.9751 148.038 11.6827 148.159C11.3934 148.277 11.157 148.45 10.9734 148.677C10.7899 148.901 10.6904 149.171 10.6748 149.489H9.55495C9.57362 148.988 9.72449 148.549 10.0076 148.173C10.2906 147.793 10.6608 147.498 11.1181 147.286C11.5785 147.075 12.084 146.969 12.6346 146.969C13.2256 146.969 13.7326 147.089 14.1557 147.328C14.5788 147.565 14.9038 147.877 15.1309 148.266C15.358 148.655 15.4715 149.075 15.4715 149.526C15.4715 150.064 15.33 150.523 15.0469 150.902C14.767 151.282 14.3859 151.545 13.9037 151.691V151.766C14.5072 151.865 14.9785 152.122 15.3176 152.536C15.6566 152.946 15.8262 153.455 15.8262 154.061C15.8262 154.581 15.6846 155.048 15.4015 155.461C15.1216 155.872 14.739 156.195 14.2537 156.432C13.7684 156.668 13.2163 156.786 12.5972 156.786ZM20.8515 156.786C20.1485 156.786 19.5497 156.595 19.0551 156.212C18.5605 155.827 18.1825 155.268 17.9212 154.537C17.6599 153.803 17.5293 152.917 17.5293 151.878C17.5293 150.845 17.6599 149.963 17.9212 149.232C18.1856 148.498 18.5651 147.938 19.0597 147.552C19.5575 147.163 20.1547 146.969 20.8515 146.969C21.5483 146.969 22.144 147.163 22.6386 147.552C23.1363 147.938 23.5158 148.498 23.7771 149.232C24.0416 149.963 24.1738 150.845 24.1738 151.878C24.1738 152.917 24.0431 153.803 23.7818 154.537C23.5205 155.268 23.1426 155.827 22.648 156.212C22.1534 156.595 21.5545 156.786 20.8515 156.786ZM20.8515 155.76C21.5483 155.76 22.0896 155.424 22.4753 154.752C22.861 154.08 23.0539 153.122 23.0539 151.878C23.0539 151.05 22.9652 150.346 22.7879 149.764C22.6137 149.182 22.3618 148.739 22.032 148.434C21.7054 148.129 21.3119 147.977 20.8515 147.977C20.1609 147.977 19.6212 148.317 19.2324 148.999C18.8436 149.677 18.6491 150.637 18.6491 151.878C18.6491 152.705 18.7362 153.408 18.9104 153.987C19.0846 154.565 19.335 155.006 19.6617 155.307C19.9914 155.609 20.388 155.76 20.8515 155.76ZM26.9921 154.043L26.9734 152.68H27.1974L30.333 149.489H31.6955L28.3546 152.867H28.2612L26.9921 154.043ZM25.9655 156.656V147.1H27.0667V156.656H25.9655ZM30.5196 156.656L27.72 153.11L28.5039 152.344L31.9194 156.656H30.5196Z" fill="white"/>
<path d="M3.80752 200.201V188.256H4.57275V200.201H3.80752ZM6.38319 191.84C6.3272 191.367 6.10011 191 5.70194 190.738C5.30377 190.477 4.81539 190.346 4.23679 190.346C3.81374 190.346 3.44356 190.415 3.12627 190.552C2.81209 190.689 2.56634 190.877 2.38903 191.116C2.21483 191.356 2.12773 191.628 2.12773 191.933C2.12773 192.188 2.18839 192.407 2.30971 192.591C2.43413 192.771 2.59278 192.922 2.78565 193.043C2.97851 193.162 3.18071 193.26 3.39224 193.337C3.60376 193.412 3.79818 193.473 3.97549 193.519L4.94604 193.781C5.1949 193.846 5.47175 193.936 5.7766 194.051C6.08456 194.166 6.37852 194.323 6.65849 194.522C6.94156 194.718 7.17487 194.97 7.3584 195.278C7.54193 195.586 7.6337 195.964 7.6337 196.412C7.6337 196.929 7.49838 197.395 7.22775 197.812C6.96023 198.229 6.56828 198.56 6.0519 198.806C5.53863 199.052 4.91493 199.175 4.1808 199.175C3.49644 199.175 2.90385 199.064 2.40303 198.843C1.90531 198.622 1.51336 198.314 1.22718 197.919C0.944102 197.524 0.7839 197.066 0.746572 196.543H1.94109C1.97219 196.904 2.09351 197.202 2.30504 197.439C2.51968 197.672 2.79031 197.846 3.11694 197.961C3.44667 198.073 3.80129 198.129 4.1808 198.129C4.62252 198.129 5.01914 198.058 5.37065 197.915C5.72216 197.769 6.00057 197.566 6.20588 197.308C6.41119 197.047 6.51384 196.742 6.51384 196.394C6.51384 196.076 6.42518 195.818 6.24787 195.619C6.07056 195.42 5.83726 195.258 5.54796 195.134C5.25866 195.009 4.94604 194.9 4.61008 194.807L3.43423 194.471C2.68766 194.257 2.09662 193.95 1.66112 193.552C1.22562 193.154 1.00787 192.633 1.00787 191.989C1.00787 191.454 1.15252 190.987 1.44182 190.589C1.73422 190.188 2.12617 189.877 2.61767 189.656C3.11227 189.432 3.66442 189.32 4.27412 189.32C4.89004 189.32 5.43753 189.43 5.91658 189.651C6.39563 189.869 6.77514 190.167 7.0551 190.547C7.33818 190.927 7.48749 191.357 7.50305 191.84H6.38319ZM9.36831 199.007V198.167L12.5226 194.714C12.8928 194.309 13.1976 193.958 13.4371 193.659C13.6767 193.358 13.854 193.074 13.9691 192.81C14.0873 192.543 14.1464 192.263 14.1464 191.97C14.1464 191.634 14.0655 191.343 13.9037 191.098C13.7451 190.852 13.5273 190.662 13.2505 190.528C12.9736 190.395 12.6626 190.328 12.3173 190.328C11.9502 190.328 11.6298 190.404 11.3561 190.556C11.0854 190.706 10.8755 190.916 10.7261 191.186C10.5799 191.457 10.5068 191.774 10.5068 192.138H9.40564C9.40564 191.578 9.53473 191.087 9.79292 190.664C10.0511 190.241 10.4026 189.911 10.8475 189.674C11.2954 189.438 11.7978 189.32 12.3546 189.32C12.9145 189.32 13.4107 189.438 13.8431 189.674C14.2755 189.911 14.6145 190.23 14.8603 190.631C15.106 191.032 15.2289 191.479 15.2289 191.97C15.2289 192.322 15.1651 192.665 15.0376 193.001C14.9132 193.334 14.6954 193.706 14.3843 194.117C14.0764 194.524 13.6487 195.022 13.1012 195.61L10.9548 197.905V197.98H15.3969V199.007H9.36831ZM20.4409 199.137C19.7379 199.137 19.1391 198.946 18.6445 198.563C18.1499 198.178 17.7719 197.619 17.5106 196.888C17.2493 196.154 17.1187 195.268 17.1187 194.229C17.1187 193.196 17.2493 192.314 17.5106 191.583C17.775 190.849 18.1545 190.289 18.6491 189.903C19.1468 189.514 19.7441 189.32 20.4409 189.32C21.1377 189.32 21.7334 189.514 22.228 189.903C22.7257 190.289 23.1052 190.849 23.3665 191.583C23.6309 192.314 23.7631 193.196 23.7631 194.229C23.7631 195.268 23.6325 196.154 23.3712 196.888C23.1099 197.619 22.7319 198.178 22.2373 198.563C21.7427 198.946 21.1439 199.137 20.4409 199.137ZM20.4409 198.111C21.1377 198.111 21.679 197.775 22.0647 197.103C22.4504 196.431 22.6433 195.473 22.6433 194.229C22.6433 193.401 22.5546 192.697 22.3773 192.115C22.2031 191.533 21.9512 191.09 21.6214 190.785C21.2948 190.48 20.9013 190.328 20.4409 190.328C19.7503 190.328 19.2106 190.668 18.8218 191.35C18.4329 192.028 18.2385 192.987 18.2385 194.229C18.2385 195.056 18.3256 195.759 18.4998 196.338C18.674 196.916 18.9244 197.356 19.2511 197.658C19.5808 197.96 19.9774 198.111 20.4409 198.111ZM26.5815 196.394L26.5628 195.031H26.7868L29.9224 191.84H31.2849L27.9439 195.218H27.8506L26.5815 196.394ZM25.5549 199.007V189.45H26.6561V199.007H25.5549ZM30.109 199.007L27.3094 195.46L28.0933 194.695L31.5088 199.007H30.109Z" fill="white"/>
<path d="M3.80752 242.552V230.607H4.57275V242.552H3.80752ZM6.38319 234.19C6.3272 233.718 6.10011 233.35 5.70194 233.089C5.30377 232.828 4.81539 232.697 4.23679 232.697C3.81374 232.697 3.44356 232.766 3.12627 232.902C2.81209 233.039 2.56634 233.228 2.38903 233.467C2.21483 233.707 2.12773 233.979 2.12773 234.284C2.12773 234.539 2.18839 234.758 2.30971 234.942C2.43413 235.122 2.59278 235.273 2.78565 235.394C2.97851 235.512 3.18071 235.61 3.39224 235.688C3.60376 235.763 3.79818 235.823 3.97549 235.87L4.94604 236.131C5.1949 236.197 5.47175 236.287 5.7766 236.402C6.08456 236.517 6.37852 236.674 6.65849 236.873C6.94156 237.069 7.17487 237.321 7.3584 237.629C7.54193 237.937 7.6337 238.315 7.6337 238.763C7.6337 239.279 7.49838 239.746 7.22775 240.163C6.96023 240.58 6.56828 240.911 6.0519 241.157C5.53863 241.403 4.91493 241.525 4.1808 241.525C3.49644 241.525 2.90385 241.415 2.40303 241.194C1.90531 240.973 1.51336 240.665 1.22718 240.27C0.944102 239.875 0.7839 239.416 0.746572 238.894H1.94109C1.97219 239.255 2.09351 239.553 2.30504 239.79C2.51968 240.023 2.79031 240.197 3.11694 240.312C3.44667 240.424 3.80129 240.48 4.1808 240.48C4.62252 240.48 5.01914 240.409 5.37065 240.266C5.72216 240.119 6.00057 239.917 6.20588 239.659C6.41119 239.398 6.51384 239.093 6.51384 238.744C6.51384 238.427 6.42518 238.169 6.24787 237.97C6.07056 237.771 5.83726 237.609 5.54796 237.485C5.25866 237.36 4.94604 237.251 4.61008 237.158L3.43423 236.822C2.68766 236.607 2.09662 236.301 1.66112 235.903C1.22562 235.505 1.00787 234.984 1.00787 234.34C1.00787 233.805 1.15252 233.338 1.44182 232.94C1.73422 232.539 2.12617 232.227 2.61767 232.007C3.11227 231.783 3.66442 231.671 4.27412 231.671C4.89004 231.671 5.43753 231.781 5.91658 232.002C6.39563 232.22 6.77514 232.518 7.0551 232.898C7.33818 233.277 7.48749 233.708 7.50305 234.19H6.38319ZM12.7279 231.801V241.357H11.5707V233.014H11.5147L9.18167 234.564V233.388L11.5707 231.801H12.7279ZM18.5931 241.488C17.8901 241.488 17.2913 241.297 16.7967 240.914C16.3021 240.528 15.9241 239.97 15.6628 239.239C15.4015 238.505 15.2709 237.618 15.2709 236.579C15.2709 235.547 15.4015 234.665 15.6628 233.934C15.9273 233.2 16.3068 232.64 16.8014 232.254C17.2991 231.865 17.8963 231.671 18.5931 231.671C19.2899 231.671 19.8856 231.865 20.3802 232.254C20.878 232.64 21.2575 233.2 21.5188 233.934C21.7832 234.665 21.9154 235.547 21.9154 236.579C21.9154 237.618 21.7847 238.505 21.5234 239.239C21.2621 239.97 20.8842 240.528 20.3896 240.914C19.895 241.297 19.2962 241.488 18.5931 241.488ZM18.5931 240.462C19.2899 240.462 19.8312 240.126 20.2169 239.454C20.6027 238.782 20.7955 237.824 20.7955 236.579C20.7955 235.752 20.7069 235.047 20.5296 234.466C20.3554 233.884 20.1034 233.441 19.7737 233.136C19.447 232.831 19.0535 232.679 18.5931 232.679C17.9026 232.679 17.3628 233.019 16.974 233.7C16.5852 234.379 16.3907 235.338 16.3907 236.579C16.3907 237.407 16.4778 238.11 16.6521 238.688C16.8263 239.267 17.0767 239.707 17.4033 240.009C17.733 240.311 18.1296 240.462 18.5931 240.462ZM24.7337 238.744L24.715 237.382H24.939L28.0746 234.19H29.4371L26.0962 237.569H26.0029L24.7337 238.744ZM23.7072 241.357V231.801H24.8083V241.357H23.7072ZM28.2612 241.357L25.4616 237.811L26.2455 237.046L29.6611 241.357H28.2612Z" fill="white"/>
</g>
<g opacity="0.03">
<rect x="84.7988" y="0.0837402" width="1.09497" height="256.223" fill="#D3D7DA"/>
<rect x="150.359" y="0.0837402" width="1.09497" height="256.223" fill="#D3D7DA"/>
<rect x="215.919" y="0.0837402" width="1.09497" height="256.223" fill="#D3D7DA"/>
<rect x="281.479" y="0.0837402" width="1.09497" height="256.223" fill="#D3D7DA"/>
<rect x="347.039" y="0.0837402" width="1.09497" height="256.223" fill="#D3D7DA"/>
<rect x="41" y="26.363" width="350.933" height="1.09497" fill="#D3D7DA"/>
<rect x="41" y="77.0056" width="350.933" height="1.09497" fill="#D3D7DA"/>
<rect x="41" y="127.648" width="350.933" height="1.09497" fill="#D3D7DA"/>
<rect x="41" y="178.291" width="350.933" height="1.09497" fill="#D3D7DA"/>
<rect x="41" y="228.933" width="350.933" height="1.09497" fill="#D3D7DA"/>
</g>
<path d="M54.9089 226.415H40.9999V263.972H391.933V26.5039L375.884 58.9894L368.395 16.5083H348.066L334.157 38.9983L317.039 26.5039L304.2 93.9739L289.221 63.9872L286.011 73.9828L277.452 63.9872L266.753 93.9739L253.913 88.9761L241.074 158.945L221.816 171.44L207.907 131.457L201.488 151.448L188.649 158.945L181.159 193.93L164.04 201.426L152.271 226.415L142.642 208.923L115.894 237.219L106.265 226.415L97.7056 236.411H80.5869L63.4682 208.923L54.9089 226.415Z" fill="url(#paint0_linear_208_14209)"/>
<path d="M43.0269 226.415H54.8512L63.4136 208.923L80.5384 236.411H97.6632L106.226 226.415L115.858 243.907L142.616 208.923L152.248 226.415L164.022 201.426L181.147 193.93L188.639 158.945L201.482 151.448L207.904 131.457L221.818 171.44L241.083 158.945L253.927 88.9761L266.77 93.9739L277.473 63.9872L286.036 73.9828L289.247 63.9872L304.231 93.9739L317.075 26.5039L334.199 38.9983L348.113 16.5083H368.449L375.941 58.9894L389.906 26.5039" stroke="#369FEE" stroke-width="2.18994" stroke-linecap="round"/>
<g opacity="0.3">
<path d="M54.6882 293.916V284.36H58.0291C58.6948 284.36 59.2438 284.475 59.6762 284.705C60.1086 284.932 60.4306 285.239 60.6421 285.624C60.8536 286.007 60.9594 286.432 60.9594 286.898C60.9594 287.309 60.8863 287.648 60.7401 287.915C60.597 288.183 60.4072 288.394 60.1708 288.55C59.9375 288.706 59.684 288.821 59.4103 288.895V288.989C59.7027 289.007 59.9966 289.11 60.2921 289.297C60.5877 289.483 60.835 289.751 61.0341 290.099C61.2331 290.448 61.3327 290.874 61.3327 291.378C61.3327 291.857 61.2238 292.288 61.0061 292.67C60.7883 293.053 60.4446 293.356 59.9749 293.58C59.5051 293.804 58.8939 293.916 58.1411 293.916H54.6882ZM55.8454 292.889H58.1411C58.897 292.889 59.4336 292.743 59.7509 292.451C60.0713 292.155 60.2315 291.798 60.2315 291.378C60.2315 291.054 60.1491 290.756 59.9842 290.482C59.8193 290.205 59.5845 289.984 59.2796 289.819C58.9748 289.651 58.6139 289.567 58.1971 289.567H55.8454V292.889ZM55.8454 288.559H57.9918C58.3402 288.559 58.6544 288.491 58.9343 288.354C59.2174 288.217 59.4414 288.024 59.6062 287.775C59.7742 287.527 59.8582 287.234 59.8582 286.898C59.8582 286.478 59.712 286.122 59.4196 285.83C59.1272 285.534 58.6637 285.386 58.0291 285.386H55.8454V288.559ZM62.7115 285.386V284.36H69.8786V285.386H66.8736V293.916H65.7165V285.386H62.7115ZM78.9564 287.346H77.7993C77.7308 287.013 77.6111 286.721 77.44 286.469C77.272 286.217 77.0667 286.005 76.824 285.834C76.5845 285.66 76.3186 285.53 76.0261 285.442C75.7337 285.355 75.4289 285.312 75.1116 285.312C74.533 285.312 74.0088 285.458 73.5391 285.75C73.0725 286.043 72.7008 286.474 72.4239 287.043C72.1502 287.612 72.0133 288.311 72.0133 289.138C72.0133 289.965 72.1502 290.664 72.4239 291.233C72.7008 291.802 73.0725 292.233 73.5391 292.526C74.0088 292.818 74.533 292.964 75.1116 292.964C75.4289 292.964 75.7337 292.921 76.0261 292.833C76.3186 292.746 76.5845 292.617 76.824 292.446C77.0667 292.272 77.272 292.059 77.44 291.807C77.6111 291.552 77.7308 291.259 77.7993 290.93H78.9564C78.8693 291.418 78.7107 291.855 78.4805 292.241C78.2503 292.627 77.9641 292.955 77.6219 293.225C77.2798 293.493 76.8956 293.697 76.4694 293.837C76.0464 293.977 75.5938 294.047 75.1116 294.047C74.2966 294.047 73.5718 293.848 72.9372 293.449C72.3026 293.051 71.8033 292.485 71.4394 291.751C71.0754 291.017 70.8935 290.146 70.8935 289.138C70.8935 288.13 71.0754 287.259 71.4394 286.525C71.8033 285.791 72.3026 285.225 72.9372 284.827C73.5718 284.428 74.2966 284.229 75.1116 284.229C75.5938 284.229 76.0464 284.299 76.4694 284.439C76.8956 284.579 77.2798 284.785 77.6219 285.055C77.9641 285.323 78.2503 285.649 78.4805 286.035C78.7107 286.418 78.8693 286.855 78.9564 287.346Z" fill="white"/>
<path d="M109.362 293.916H108.149L111.658 284.36H112.852L116.361 293.916H115.148L112.292 285.872H112.218L109.362 293.916ZM109.81 290.183H114.7V291.21H109.81V290.183ZM116.211 285.386V284.36H123.378V285.386H120.373V293.916H119.216V285.386H116.211ZM132.829 289.138C132.829 290.146 132.647 291.017 132.283 291.751C131.919 292.485 131.42 293.051 130.785 293.449C130.151 293.848 129.426 294.047 128.611 294.047C127.796 294.047 127.071 293.848 126.436 293.449C125.802 293.051 125.303 292.485 124.939 291.751C124.575 291.017 124.393 290.146 124.393 289.138C124.393 288.13 124.575 287.259 124.939 286.525C125.303 285.791 125.802 285.225 126.436 284.827C127.071 284.428 127.796 284.229 128.611 284.229C129.426 284.229 130.151 284.428 130.785 284.827C131.42 285.225 131.919 285.791 132.283 286.525C132.647 287.259 132.829 288.13 132.829 289.138ZM131.709 289.138C131.709 288.311 131.571 287.612 131.294 287.043C131.02 286.474 130.648 286.043 130.179 285.75C129.712 285.458 129.189 285.312 128.611 285.312C128.032 285.312 127.508 285.458 127.038 285.75C126.572 286.043 126.2 286.474 125.923 287.043C125.649 287.612 125.513 288.311 125.513 289.138C125.513 289.965 125.649 290.664 125.923 291.233C126.2 291.802 126.572 292.233 127.038 292.526C127.508 292.818 128.032 292.964 128.611 292.964C129.189 292.964 129.712 292.818 130.179 292.526C130.648 292.233 131.02 291.802 131.294 291.233C131.571 290.664 131.709 289.965 131.709 289.138ZM134.775 284.36H136.156L139.403 292.292H139.515L142.763 284.36H144.144V293.916H143.062V286.656H142.968L139.982 293.916H138.937L135.951 286.656H135.857V293.916H134.775V284.36Z" fill="white"/>
<path d="M175.649 284.36L178.113 288.335H178.188L180.651 284.36H182.014L179.009 289.138L182.014 293.916H180.651L178.188 290.015H178.113L175.649 293.916H174.287L177.366 289.138L174.287 284.36H175.649ZM183.52 293.916V284.36H186.749C187.495 284.36 188.108 284.487 188.587 284.743C189.066 284.994 189.421 285.341 189.651 285.783C189.881 286.225 189.996 286.727 189.996 287.29C189.996 287.853 189.881 288.353 189.651 288.788C189.421 289.224 189.068 289.566 188.592 289.815C188.116 290.06 187.508 290.183 186.767 290.183H184.154V289.138H186.73C187.24 289.138 187.651 289.063 187.962 288.914C188.276 288.765 188.503 288.553 188.643 288.279C188.786 288.003 188.858 287.673 188.858 287.29C188.858 286.908 188.786 286.573 188.643 286.287C188.5 286.001 188.271 285.78 187.957 285.624C187.643 285.466 187.228 285.386 186.711 285.386H184.677V293.916H183.52ZM188.018 289.623L190.37 293.916H189.026L186.711 289.623H188.018ZM191.924 293.916V284.36H195.153C195.903 284.36 196.516 284.495 196.992 284.766C197.471 285.033 197.826 285.396 198.056 285.853C198.286 286.31 198.401 286.82 198.401 287.384C198.401 287.947 198.286 288.458 198.056 288.919C197.829 289.379 197.477 289.746 197.001 290.02C196.525 290.29 195.916 290.426 195.172 290.426H192.858V289.399H195.135C195.648 289.399 196.06 289.311 196.371 289.133C196.682 288.956 196.908 288.716 197.048 288.415C197.191 288.11 197.262 287.766 197.262 287.384C197.262 287.001 197.191 286.659 197.048 286.357C196.908 286.055 196.681 285.819 196.367 285.648C196.052 285.474 195.636 285.386 195.116 285.386H193.082V293.916H191.924Z" fill="white"/>
<path d="M234.482 285.386V284.36H241.649V285.386H238.644V293.916H237.487V285.386H234.482ZM243.435 293.916V284.36H246.664C247.41 284.36 248.023 284.487 248.502 284.743C248.981 284.994 249.336 285.341 249.566 285.783C249.796 286.225 249.911 286.727 249.911 287.29C249.911 287.853 249.796 288.353 249.566 288.788C249.336 289.224 248.983 289.566 248.507 289.815C248.031 290.06 247.423 290.183 246.682 290.183H244.069V289.138H246.645C247.155 289.138 247.566 289.063 247.877 288.914C248.191 288.765 248.418 288.553 248.558 288.279C248.701 288.003 248.773 287.673 248.773 287.29C248.773 286.908 248.701 286.573 248.558 286.287C248.415 286.001 248.186 285.78 247.872 285.624C247.558 285.466 247.143 285.386 246.626 285.386H244.592V293.916H243.435ZM247.933 289.623L250.285 293.916H248.941L246.626 289.623H247.933ZM252.399 284.36L254.863 288.335H254.938L257.402 284.36H258.764L255.759 289.138L258.764 293.916H257.402L254.938 290.015H254.863L252.399 293.916H251.037L254.117 289.138L251.037 284.36H252.399Z" fill="white"/>
<path d="M294.105 293.916V284.36H297.445C298.111 284.36 298.66 284.475 299.093 284.705C299.525 284.932 299.847 285.239 300.058 285.624C300.27 286.007 300.376 286.432 300.376 286.898C300.376 287.309 300.303 287.648 300.156 287.915C300.013 288.183 299.824 288.394 299.587 288.55C299.354 288.706 299.1 288.821 298.827 288.895V288.989C299.119 289.007 299.413 289.11 299.709 289.297C300.004 289.483 300.251 289.751 300.45 290.099C300.65 290.448 300.749 290.874 300.749 291.378C300.749 291.857 300.64 292.288 300.422 292.67C300.205 293.053 299.861 293.356 299.391 293.58C298.922 293.804 298.31 293.916 297.557 293.916H294.105ZM295.262 292.889H297.557C298.313 292.889 298.85 292.743 299.167 292.451C299.488 292.155 299.648 291.798 299.648 291.378C299.648 291.054 299.565 290.756 299.401 290.482C299.236 290.205 299.001 289.984 298.696 289.819C298.391 289.651 298.03 289.567 297.613 289.567H295.262V292.889ZM295.262 288.559H297.408C297.757 288.559 298.071 288.491 298.351 288.354C298.634 288.217 298.858 288.024 299.023 287.775C299.191 287.527 299.275 287.234 299.275 286.898C299.275 286.478 299.128 286.122 298.836 285.83C298.544 285.534 298.08 285.386 297.445 285.386H295.262V288.559ZM310.228 284.36V293.916H309.108L303.901 286.413H303.808V293.916H302.651V284.36H303.77L308.996 291.882H309.09V284.36H310.228ZM312.544 293.916V284.36H315.885C316.55 284.36 317.099 284.475 317.532 284.705C317.964 284.932 318.286 285.239 318.498 285.624C318.709 286.007 318.815 286.432 318.815 286.898C318.815 287.309 318.742 287.648 318.596 287.915C318.453 288.183 318.263 288.394 318.026 288.55C317.793 288.706 317.54 288.821 317.266 288.895V288.989C317.558 289.007 317.852 289.11 318.148 289.297C318.443 289.483 318.691 289.751 318.89 290.099C319.089 290.448 319.188 290.874 319.188 291.378C319.188 291.857 319.079 292.288 318.862 292.67C318.644 293.053 318.3 293.356 317.83 293.58C317.361 293.804 316.749 293.916 315.997 293.916H312.544ZM313.701 292.889H315.997C316.753 292.889 317.289 292.743 317.606 292.451C317.927 292.155 318.087 291.798 318.087 291.378C318.087 291.054 318.005 290.756 317.84 290.482C317.675 290.205 317.44 289.984 317.135 289.819C316.83 289.651 316.469 289.567 316.053 289.567H313.701V292.889ZM313.701 288.559H315.847C316.196 288.559 316.51 288.491 316.79 288.354C317.073 288.217 317.297 288.024 317.462 287.775C317.63 287.527 317.714 287.234 317.714 286.898C317.714 286.478 317.568 286.122 317.275 285.83C316.983 285.534 316.519 285.386 315.885 285.386H313.701V288.559Z" fill="white"/>
<path d="M358.002 289.138C358.002 290.146 357.82 291.017 357.456 291.751C357.092 292.485 356.593 293.051 355.958 293.449C355.324 293.848 354.599 294.047 353.784 294.047C352.969 294.047 352.244 293.848 351.61 293.449C350.975 293.051 350.476 292.485 350.112 291.751C349.748 291.017 349.566 290.146 349.566 289.138C349.566 288.13 349.748 287.259 350.112 286.525C350.476 285.791 350.975 285.225 351.61 284.827C352.244 284.428 352.969 284.229 353.784 284.229C354.599 284.229 355.324 284.428 355.958 284.827C356.593 285.225 357.092 285.791 357.456 286.525C357.82 287.259 358.002 288.13 358.002 289.138ZM356.882 289.138C356.882 288.311 356.744 287.612 356.467 287.043C356.193 286.474 355.822 286.043 355.352 285.75C354.885 285.458 354.363 285.312 353.784 285.312C353.205 285.312 352.681 285.458 352.212 285.75C351.745 286.043 351.373 286.474 351.096 287.043C350.823 287.612 350.686 288.311 350.686 289.138C350.686 289.965 350.823 290.664 351.096 291.233C351.373 291.802 351.745 292.233 352.212 292.526C352.681 292.818 353.205 292.964 353.784 292.964C354.363 292.964 354.885 292.818 355.352 292.526C355.822 292.233 356.193 291.802 356.467 291.233C356.744 290.664 356.882 289.965 356.882 289.138ZM362.916 286.749V287.682H359.201V286.749H362.916ZM360.284 285.032H361.385V291.863C361.385 292.174 361.43 292.407 361.52 292.563C361.614 292.715 361.732 292.818 361.875 292.871C362.021 292.921 362.175 292.945 362.337 292.945C362.458 292.945 362.558 292.939 362.636 292.927C362.713 292.911 362.776 292.899 362.822 292.889L363.046 293.879C362.972 293.907 362.867 293.935 362.734 293.963C362.6 293.994 362.43 294.009 362.225 294.009C361.914 294.009 361.609 293.942 361.31 293.809C361.015 293.675 360.769 293.471 360.573 293.197C360.38 292.924 360.284 292.578 360.284 292.162V285.032ZM365.827 289.605V293.916H364.726V284.36H365.827V287.869H365.92C366.088 287.499 366.34 287.205 366.676 286.987C367.015 286.766 367.466 286.656 368.03 286.656C368.518 286.656 368.946 286.754 369.313 286.95C369.68 287.142 369.964 287.44 370.167 287.841C370.372 288.239 370.475 288.746 370.475 289.362V293.916H369.373V289.437C369.373 288.867 369.226 288.427 368.93 288.116C368.638 287.802 368.232 287.645 367.712 287.645C367.351 287.645 367.028 287.721 366.742 287.873C366.459 288.026 366.235 288.248 366.07 288.541C365.908 288.833 365.827 289.188 365.827 289.605ZM375.494 294.065C374.803 294.065 374.208 293.913 373.707 293.608C373.209 293.3 372.825 292.871 372.554 292.32C372.287 291.767 372.153 291.123 372.153 290.388C372.153 289.654 372.287 289.007 372.554 288.447C372.825 287.884 373.201 287.446 373.684 287.132C374.169 286.814 374.735 286.656 375.382 286.656C375.755 286.656 376.124 286.718 376.488 286.842C376.852 286.967 377.183 287.169 377.482 287.449C377.78 287.726 378.018 288.093 378.196 288.55C378.373 289.007 378.462 289.57 378.462 290.239V290.706H372.937V289.754H377.342C377.342 289.349 377.261 288.989 377.099 288.671C376.941 288.354 376.713 288.104 376.418 287.92C376.126 287.737 375.78 287.645 375.382 287.645C374.943 287.645 374.564 287.754 374.244 287.971C373.926 288.186 373.682 288.466 373.511 288.811C373.34 289.157 373.254 289.527 373.254 289.922V290.556C373.254 291.098 373.348 291.557 373.534 291.933C373.724 292.306 373.987 292.591 374.323 292.787C374.659 292.98 375.049 293.076 375.494 293.076C375.783 293.076 376.045 293.036 376.278 292.955C376.514 292.871 376.718 292.746 376.889 292.582C377.06 292.414 377.193 292.205 377.286 291.956L378.35 292.255C378.238 292.616 378.05 292.933 377.785 293.207C377.521 293.477 377.194 293.689 376.805 293.841C376.416 293.991 375.979 294.065 375.494 294.065ZM380.137 293.916V286.749H381.201V287.831H381.275C381.406 287.477 381.642 287.189 381.985 286.968C382.327 286.747 382.712 286.637 383.142 286.637C383.223 286.637 383.324 286.638 383.445 286.642C383.566 286.645 383.658 286.649 383.72 286.656V287.775C383.683 287.766 383.597 287.752 383.464 287.733C383.333 287.712 383.195 287.701 383.048 287.701C382.7 287.701 382.389 287.774 382.115 287.92C381.845 288.063 381.63 288.262 381.471 288.517C381.316 288.769 381.238 289.057 381.238 289.381V293.916H380.137Z" fill="white"/>
</g>
<defs>
<linearGradient id="paint0_linear_208_14209" x1="216.466" y1="16.5083" x2="216.466" y2="263.972" gradientUnits="userSpaceOnUse">
<stop stop-color="#3F86F0" stop-opacity="0.5"/>
<stop offset="1" stop-color="#3F86F0" stop-opacity="0"/>
</linearGradient>
</defs>
</svg>
