<svg width="506" height="298" viewBox="0 0 506 298" fill="none" xmlns="http://www.w3.org/2000/svg">
<g filter="url(#filter0_b_290_4133)">
<g clip-path="url(#clip0_290_4133)">
<g opacity="0.15">
<line x1="-27" y1="14.1729" x2="534" y2="14.1729" stroke="url(#paint0_linear_290_4133)" stroke-opacity="0.4" stroke-width="0.374"/>
<line x1="-27" y1="32.1248" x2="534" y2="32.1248" stroke="url(#paint1_linear_290_4133)" stroke-opacity="0.4" stroke-width="0.374"/>
<line x1="-27" y1="50.0769" x2="534" y2="50.0769" stroke="url(#paint2_linear_290_4133)" stroke-opacity="0.4" stroke-width="0.374"/>
<line x1="-27" y1="68.0288" x2="534" y2="68.0288" stroke="url(#paint3_linear_290_4133)" stroke-opacity="0.4" stroke-width="0.374"/>
<line x1="-27" y1="85.981" x2="534" y2="85.981" stroke="url(#paint4_linear_290_4133)" stroke-opacity="0.4" stroke-width="0.374"/>
<line x1="-27" y1="103.933" x2="534" y2="103.933" stroke="url(#paint5_linear_290_4133)" stroke-opacity="0.4" stroke-width="0.374"/>
<line x1="-27" y1="121.885" x2="534" y2="121.885" stroke="url(#paint6_linear_290_4133)" stroke-opacity="0.4" stroke-width="0.374"/>
<line x1="-27" y1="139.837" x2="534" y2="139.837" stroke="url(#paint7_linear_290_4133)" stroke-opacity="0.4" stroke-width="0.374"/>
<line x1="-27" y1="157.789" x2="534" y2="157.789" stroke="url(#paint8_linear_290_4133)" stroke-opacity="0.4" stroke-width="0.374"/>
<line x1="-27" y1="175.741" x2="534" y2="175.741" stroke="url(#paint9_linear_290_4133)" stroke-opacity="0.4" stroke-width="0.374"/>
<line x1="-27" y1="193.693" x2="534" y2="193.693" stroke="url(#paint10_linear_290_4133)" stroke-opacity="0.4" stroke-width="0.374"/>
<line x1="-27" y1="211.645" x2="534" y2="211.645" stroke="url(#paint11_linear_290_4133)" stroke-opacity="0.4" stroke-width="0.374"/>
<line x1="-27" y1="229.597" x2="534" y2="229.597" stroke="url(#paint12_linear_290_4133)" stroke-opacity="0.4" stroke-width="0.374"/>
<line x1="-27" y1="247.549" x2="534" y2="247.549" stroke="url(#paint13_linear_290_4133)" stroke-opacity="0.4" stroke-width="0.374"/>
<line x1="-27" y1="265.501" x2="534" y2="265.501" stroke="url(#paint14_linear_290_4133)" stroke-opacity="0.4" stroke-width="0.374"/>
<line x1="-27" y1="283.453" x2="534" y2="283.453" stroke="url(#paint15_linear_290_4133)" stroke-opacity="0.4" stroke-width="0.374"/>
<g clip-path="url(#clip1_290_4133)">
<line x1="17.3189" y1="521.504" x2="17.3188" y2="-39.4961" stroke="url(#paint16_linear_290_4133)" stroke-opacity="0.4" stroke-width="0.374"/>
<line x1="35.271" y1="521.504" x2="35.271" y2="-39.4961" stroke="url(#paint17_linear_290_4133)" stroke-opacity="0.4" stroke-width="0.374"/>
<line x1="53.2232" y1="521.504" x2="53.2231" y2="-39.4961" stroke="url(#paint18_linear_290_4133)" stroke-opacity="0.4" stroke-width="0.374"/>
<line x1="71.1753" y1="521.504" x2="71.1753" y2="-39.4961" stroke="url(#paint19_linear_290_4133)" stroke-opacity="0.4" stroke-width="0.374"/>
<line x1="89.1275" y1="521.504" x2="89.1274" y2="-39.4961" stroke="url(#paint20_linear_290_4133)" stroke-opacity="0.4" stroke-width="0.374"/>
<line x1="107.079" y1="521.504" x2="107.079" y2="-39.4961" stroke="url(#paint21_linear_290_4133)" stroke-opacity="0.4" stroke-width="0.374"/>
<line x1="125.031" y1="521.504" x2="125.031" y2="-39.4961" stroke="url(#paint22_linear_290_4133)" stroke-opacity="0.4" stroke-width="0.374"/>
<line x1="142.983" y1="521.504" x2="142.983" y2="-39.4961" stroke="url(#paint23_linear_290_4133)" stroke-opacity="0.4" stroke-width="0.374"/>
<line x1="160.936" y1="521.504" x2="160.936" y2="-39.4961" stroke="url(#paint24_linear_290_4133)" stroke-opacity="0.4" stroke-width="0.374"/>
<line x1="178.887" y1="521.504" x2="178.887" y2="-39.4961" stroke="url(#paint25_linear_290_4133)" stroke-opacity="0.4" stroke-width="0.374"/>
<line x1="196.839" y1="521.504" x2="196.839" y2="-39.4961" stroke="url(#paint26_linear_290_4133)" stroke-opacity="0.4" stroke-width="0.374"/>
<line x1="214.792" y1="521.504" x2="214.791" y2="-39.4961" stroke="url(#paint27_linear_290_4133)" stroke-opacity="0.4" stroke-width="0.374"/>
<line x1="232.744" y1="521.504" x2="232.744" y2="-39.4961" stroke="url(#paint28_linear_290_4133)" stroke-opacity="0.4" stroke-width="0.374"/>
<line x1="250.695" y1="521.504" x2="250.695" y2="-39.4961" stroke="url(#paint29_linear_290_4133)" stroke-opacity="0.4" stroke-width="0.374"/>
<line x1="268.647" y1="521.504" x2="268.647" y2="-39.4961" stroke="url(#paint30_linear_290_4133)" stroke-opacity="0.4" stroke-width="0.374"/>
<line x1="286.6" y1="521.504" x2="286.6" y2="-39.4961" stroke="url(#paint31_linear_290_4133)" stroke-opacity="0.4" stroke-width="0.374"/>
<line x1="304.551" y1="521.504" x2="304.551" y2="-39.4961" stroke="url(#paint32_linear_290_4133)" stroke-opacity="0.4" stroke-width="0.374"/>
<line x1="322.503" y1="521.504" x2="322.503" y2="-39.4961" stroke="url(#paint33_linear_290_4133)" stroke-opacity="0.4" stroke-width="0.374"/>
<line x1="340.456" y1="521.504" x2="340.456" y2="-39.4961" stroke="url(#paint34_linear_290_4133)" stroke-opacity="0.4" stroke-width="0.374"/>
<line x1="340.456" y1="521.504" x2="340.456" y2="-39.4961" stroke="url(#paint35_linear_290_4133)" stroke-opacity="0.4" stroke-width="0.374"/>
<line x1="358.408" y1="521.504" x2="358.408" y2="-39.4961" stroke="url(#paint36_linear_290_4133)" stroke-opacity="0.4" stroke-width="0.374"/>
<line x1="376.359" y1="521.504" x2="376.359" y2="-39.4961" stroke="url(#paint37_linear_290_4133)" stroke-opacity="0.4" stroke-width="0.374"/>
<line x1="394.312" y1="521.504" x2="394.312" y2="-39.4961" stroke="url(#paint38_linear_290_4133)" stroke-opacity="0.4" stroke-width="0.374"/>
<line x1="412.264" y1="521.504" x2="412.264" y2="-39.4961" stroke="url(#paint39_linear_290_4133)" stroke-opacity="0.4" stroke-width="0.374"/>
<line x1="430.216" y1="521.504" x2="430.216" y2="-39.4961" stroke="url(#paint40_linear_290_4133)" stroke-opacity="0.4" stroke-width="0.374"/>
<line x1="448.167" y1="521.504" x2="448.167" y2="-39.4961" stroke="url(#paint41_linear_290_4133)" stroke-opacity="0.4" stroke-width="0.374"/>
<line x1="466.12" y1="521.504" x2="466.12" y2="-39.4961" stroke="url(#paint42_linear_290_4133)" stroke-opacity="0.4" stroke-width="0.374"/>
<line x1="484.072" y1="521.504" x2="484.072" y2="-39.4961" stroke="url(#paint43_linear_290_4133)" stroke-opacity="0.4" stroke-width="0.374"/>
<line x1="502.024" y1="521.504" x2="502.024" y2="-39.4961" stroke="url(#paint44_linear_290_4133)" stroke-opacity="0.4" stroke-width="0.374"/>
</g>
</g>
<g filter="url(#filter1_f_290_4133)">
<path d="M2.42383 108.938H11.7219V134.806H2.42383V108.938ZM5.52318 78.1567V108.938V78.1567ZM5.52318 139.872V134.806V139.872Z" fill="#EC0000"/>
<path d="M5.52318 78.1567V108.938M5.52318 139.872V134.806M2.42383 108.938H11.7219V134.806H2.42383V108.938Z" stroke="#EC0000" stroke-width="0.480197"/>
<path d="M22.5723 157.373H31.8703V182.32H22.5723V157.373ZM27.2213 140.716V157.373V140.716Z" fill="#00DA3C"/>
<path d="M27.2213 140.716V157.373M22.5723 157.373H31.8703V182.32H22.5723V157.373Z" stroke="#00DA3C" stroke-width="0.480197"/>
<path d="M42.7168 74.1646H52.0149V85.9856H42.7168V74.1646ZM47.3658 154.916V85.9856V154.916Z" fill="#00DA3C"/>
<path d="M47.3658 154.916V85.9856M42.7168 74.1646H52.0149V85.9856H42.7168V74.1646Z" stroke="#00DA3C" stroke-width="0.480197"/>
<path d="M62.8613 177.177H72.1594V213.408H62.8613V177.177ZM67.5104 161.518V177.177V161.518Z" fill="#00DA3C"/>
<path d="M67.5104 161.518V177.177M62.8613 177.177H72.1594V213.408H62.8613V177.177Z" stroke="#00DA3C" stroke-width="0.480197"/>
<path d="M83.0098 229.451H92.3078V268.829H83.0098V229.451ZM87.6588 270.978V268.829V270.978Z" fill="#00DA3C"/>
<path d="M87.6588 270.978V268.829M83.0098 229.451H92.3078V268.829H83.0098V229.451Z" stroke="#00DA3C" stroke-width="0.480197"/>
<path d="M104.703 138.72H114.001V196.367H104.703V138.72ZM107.802 210.337V196.367V210.337Z" fill="#00DA3C"/>
<path d="M107.802 210.337V196.367M104.703 138.72H114.001V196.367H104.703V138.72Z" stroke="#00DA3C" stroke-width="0.480197"/>
<path d="M124.848 193.45H134.146V196.828H124.848V193.45ZM127.947 166.047V193.45V166.047ZM127.947 227.532V196.828V227.532Z" fill="#00DA3C"/>
<path d="M127.947 166.047V193.45M127.947 227.532V196.828M124.848 193.45H134.146V196.828H124.848V193.45Z" stroke="#00DA3C" stroke-width="0.480197"/>
<path d="M144.996 191.915H154.294V234.823H144.996V191.915ZM149.645 256.623V234.823V256.623Z" fill="#00DA3C"/>
<path d="M149.645 256.623V234.823M144.996 191.915H154.294V234.823H144.996V191.915Z" stroke="#00DA3C" stroke-width="0.480197"/>
<path d="M165.141 206.807H174.439V223.54H165.141V206.807ZM169.79 149.083V206.807V149.083Z" fill="#EC0000"/>
<path d="M169.79 149.083V206.807M165.141 206.807H174.439V223.54H165.141V206.807Z" stroke="#EC0000" stroke-width="0.480197"/>
<path d="M189.936 162.977V213.101V162.977ZM189.936 222.082V213.101V222.082Z" fill="#00DA3C"/>
<path d="M185.287 213.101H194.585M189.936 162.977V213.101V222.082" stroke="#00DA3C" stroke-width="0.480197"/>
<path d="M205.432 157.757H214.73V176.102H205.432V157.757ZM210.081 120.144V157.757V120.144Z" fill="#00DA3C"/>
<path d="M210.081 120.144V157.757M205.432 157.757H214.73V176.102H205.432V157.757Z" stroke="#00DA3C" stroke-width="0.480197"/>
<path d="M227.127 136.263H236.425V164.664H227.127V136.263ZM230.226 219.932V164.664V219.932Z" fill="#00DA3C"/>
<path d="M230.226 219.932V164.664M227.127 136.263H236.425V164.664H227.127V136.263Z" stroke="#00DA3C" stroke-width="0.480197"/>
<path d="M247.273 78.6934H256.571V95.6573H247.273V78.6934ZM251.922 147.777V95.6573V147.777Z" fill="#00DA3C"/>
<path d="M251.922 147.777V95.6573M247.273 78.6934H256.571V95.6573H247.273V78.6934Z" stroke="#00DA3C" stroke-width="0.480197"/>
<path d="M267.42 101.337H276.718V176.485H267.42V101.337Z" fill="#00DA3C" stroke="#00DA3C" stroke-width="0.480197"/>
<path d="M287.564 52.7491H296.863V68.1779H287.564V52.7491ZM292.213 44.0752V52.7491V44.0752ZM292.213 79.1546V68.1779V79.1546Z" fill="#EC0000"/>
<path d="M292.213 44.0752V52.7491M292.213 79.1546V68.1779M287.564 52.7491H296.863V68.1779H287.564V52.7491Z" stroke="#EC0000" stroke-width="0.480197"/>
<path d="M307.711 34.3267H317.009V83.1461H307.711V34.3267ZM312.36 30.5654V34.3267V30.5654ZM312.36 98.8819V83.1461V98.8819Z" fill="#EC0000"/>
<path d="M312.36 30.5654V34.3267M312.36 98.8819V83.1461M307.711 34.3267H317.009V83.1461H307.711V34.3267Z" stroke="#EC0000" stroke-width="0.480197"/>
<path d="M327.855 85.3721H337.154V109.782H327.855V85.3721ZM332.504 145.475V109.782V145.475Z" fill="#EC0000"/>
<path d="M332.504 145.475V109.782M327.855 85.3721H337.154V109.782H327.855V85.3721Z" stroke="#EC0000" stroke-width="0.480197"/>
<path d="M349.553 63.3421H358.851V68.2548H349.553V63.3421ZM352.652 18.0537V63.3421V18.0537ZM352.652 103.948V68.2548V103.948Z" fill="#00DA3C"/>
<path d="M352.652 18.0537V63.3421M352.652 103.948V68.2548M349.553 63.3421H358.851V68.2548H349.553V63.3421Z" stroke="#00DA3C" stroke-width="0.480197"/>
<path d="M369.697 7.76747H378.995V62.6509H369.697V7.76747ZM374.346 -0.215576V7.76747V-0.215576ZM374.346 76.6213V62.6509V76.6213Z" fill="#EC0000"/>
<path d="M374.346 -0.215576V7.76747M374.346 76.6213V62.6509M369.697 7.76747H378.995V62.6509H369.697V7.76747Z" stroke="#EC0000" stroke-width="0.480197"/>
<path d="M389.844 102.796H399.142V120.988H389.844V102.796ZM394.493 73.5505V102.796V73.5505ZM394.493 132.118V120.988V132.118Z" fill="#EC0000"/>
<path d="M394.493 73.5505V102.796M394.493 132.118V120.988M389.844 102.796H399.142V120.988H389.844V102.796Z" stroke="#EC0000" stroke-width="0.480197"/>
<path d="M409.99 166.737H419.288V192.836H409.99V166.737ZM414.639 104.485V166.737V104.485Z" fill="#00DA3C"/>
<path d="M414.639 104.485V166.737M409.99 166.737H419.288V192.836H409.99V166.737Z" stroke="#00DA3C" stroke-width="0.480197"/>
<path d="M430.135 204.657H439.433V225.306H430.135V204.657ZM434.784 163.514V204.657V163.514Z" fill="#00DA3C"/>
<path d="M434.784 163.514V204.657M430.135 204.657H439.433V225.306H430.135V204.657Z" stroke="#00DA3C" stroke-width="0.480197"/>
<path d="M450.279 162.516H459.577V183.855H450.279V162.516ZM454.928 101.645V162.516V101.645Z" fill="#EC0000"/>
<path d="M454.928 101.645V162.516M450.279 162.516H459.577V183.855H450.279V162.516Z" stroke="#EC0000" stroke-width="0.480197"/>
<path d="M471.977 191.301H481.275V204.427H471.977V191.301ZM475.076 181.552V191.301V181.552ZM475.076 243.421V204.427V243.421Z" fill="#EC0000"/>
<path d="M475.076 181.552V191.301M475.076 243.421V204.427M471.977 191.301H481.275V204.427H471.977V191.301Z" stroke="#EC0000" stroke-width="0.480197"/>
<path d="M492.123 215.25H501.421V260.078H492.123V215.25ZM496.772 192.375V215.25V192.375Z" fill="#EC0000"/>
<path d="M496.772 192.375V215.25M492.123 215.25H501.421V260.078H492.123V215.25Z" stroke="#EC0000" stroke-width="0.480197"/>
</g>
<path d="M2.42383 108.938H11.7219V134.806H2.42383V108.938ZM5.52318 78.1567V108.938V78.1567ZM5.52318 139.872V134.806V139.872Z" fill="#EC0000"/>
<path d="M5.52318 78.1567V108.938M5.52318 139.872V134.806M2.42383 108.938H11.7219V134.806H2.42383V108.938Z" stroke="#EC0000" stroke-width="0.480197"/>
<path d="M22.5723 157.373H31.8703V182.32H22.5723V157.373ZM27.2213 140.716V157.373V140.716Z" fill="#00DA3C"/>
<path d="M27.2213 140.716V157.373M22.5723 157.373H31.8703V182.32H22.5723V157.373Z" stroke="#00DA3C" stroke-width="0.480197"/>
<path d="M42.7168 74.1646H52.0149V85.9856H42.7168V74.1646ZM47.3658 154.916V85.9856V154.916Z" fill="#00DA3C"/>
<path d="M47.3658 154.916V85.9856M42.7168 74.1646H52.0149V85.9856H42.7168V74.1646Z" stroke="#00DA3C" stroke-width="0.480197"/>
<path d="M62.8613 177.177H72.1594V213.408H62.8613V177.177ZM67.5104 161.518V177.177V161.518Z" fill="#00DA3C"/>
<path d="M67.5104 161.518V177.177M62.8613 177.177H72.1594V213.408H62.8613V177.177Z" stroke="#00DA3C" stroke-width="0.480197"/>
<path d="M83.0098 229.451H92.3078V268.829H83.0098V229.451ZM87.6588 270.978V268.829V270.978Z" fill="#00DA3C"/>
<path d="M87.6588 270.978V268.829M83.0098 229.451H92.3078V268.829H83.0098V229.451Z" stroke="#00DA3C" stroke-width="0.480197"/>
<path d="M104.703 138.72H114.001V196.367H104.703V138.72ZM107.802 210.337V196.367V210.337Z" fill="#00DA3C"/>
<path d="M107.802 210.337V196.367M104.703 138.72H114.001V196.367H104.703V138.72Z" stroke="#00DA3C" stroke-width="0.480197"/>
<path d="M124.848 193.45H134.146V196.828H124.848V193.45ZM127.947 166.047V193.45V166.047ZM127.947 227.532V196.828V227.532Z" fill="#00DA3C"/>
<path d="M127.947 166.047V193.45M127.947 227.532V196.828M124.848 193.45H134.146V196.828H124.848V193.45Z" stroke="#00DA3C" stroke-width="0.480197"/>
<path d="M144.996 191.915H154.294V234.823H144.996V191.915ZM149.645 256.623V234.823V256.623Z" fill="#00DA3C"/>
<path d="M149.645 256.623V234.823M144.996 191.915H154.294V234.823H144.996V191.915Z" stroke="#00DA3C" stroke-width="0.480197"/>
<path d="M165.141 206.807H174.439V223.54H165.141V206.807ZM169.79 149.083V206.807V149.083Z" fill="#EC0000"/>
<path d="M169.79 149.083V206.807M165.141 206.807H174.439V223.54H165.141V206.807Z" stroke="#EC0000" stroke-width="0.480197"/>
<path d="M189.936 162.977V213.101V162.977ZM189.936 222.082V213.101V222.082Z" fill="#00DA3C"/>
<path d="M185.287 213.101H194.585M189.936 162.977V213.101V222.082" stroke="#00DA3C" stroke-width="0.480197"/>
<path d="M205.432 157.757H214.73V176.102H205.432V157.757ZM210.081 120.144V157.757V120.144Z" fill="#00DA3C"/>
<path d="M210.081 120.144V157.757M205.432 157.757H214.73V176.102H205.432V157.757Z" stroke="#00DA3C" stroke-width="0.480197"/>
<path d="M227.127 136.263H236.425V164.664H227.127V136.263ZM230.226 219.932V164.664V219.932Z" fill="#00DA3C"/>
<path d="M230.226 219.932V164.664M227.127 136.263H236.425V164.664H227.127V136.263Z" stroke="#00DA3C" stroke-width="0.480197"/>
<path d="M247.273 78.6934H256.571V95.6573H247.273V78.6934ZM251.922 147.777V95.6573V147.777Z" fill="#00DA3C"/>
<path d="M251.922 147.777V95.6573M247.273 78.6934H256.571V95.6573H247.273V78.6934Z" stroke="#00DA3C" stroke-width="0.480197"/>
<path d="M267.42 101.337H276.718V176.485H267.42V101.337Z" fill="#00DA3C" stroke="#00DA3C" stroke-width="0.480197"/>
<path d="M287.564 52.7491H296.863V68.1779H287.564V52.7491ZM292.213 44.0752V52.7491V44.0752ZM292.213 79.1546V68.1779V79.1546Z" fill="#EC0000"/>
<path d="M292.213 44.0752V52.7491M292.213 79.1546V68.1779M287.564 52.7491H296.863V68.1779H287.564V52.7491Z" stroke="#EC0000" stroke-width="0.480197"/>
<path d="M307.711 34.3267H317.009V83.1461H307.711V34.3267ZM312.36 30.5654V34.3267V30.5654ZM312.36 98.8819V83.1461V98.8819Z" fill="#EC0000"/>
<path d="M312.36 30.5654V34.3267M312.36 98.8819V83.1461M307.711 34.3267H317.009V83.1461H307.711V34.3267Z" stroke="#EC0000" stroke-width="0.480197"/>
<path d="M327.855 85.3721H337.154V109.782H327.855V85.3721ZM332.504 145.475V109.782V145.475Z" fill="#EC0000"/>
<path d="M332.504 145.475V109.782M327.855 85.3721H337.154V109.782H327.855V85.3721Z" stroke="#EC0000" stroke-width="0.480197"/>
<path d="M349.553 63.3421H358.851V68.2548H349.553V63.3421ZM352.652 18.0537V63.3421V18.0537ZM352.652 103.948V68.2548V103.948Z" fill="#00DA3C"/>
<path d="M352.652 18.0537V63.3421M352.652 103.948V68.2548M349.553 63.3421H358.851V68.2548H349.553V63.3421Z" stroke="#00DA3C" stroke-width="0.480197"/>
<path d="M369.697 7.76747H378.995V62.6509H369.697V7.76747ZM374.346 -0.215576V7.76747V-0.215576ZM374.346 76.6213V62.6509V76.6213Z" fill="#EC0000"/>
<path d="M374.346 -0.215576V7.76747M374.346 76.6213V62.6509M369.697 7.76747H378.995V62.6509H369.697V7.76747Z" stroke="#EC0000" stroke-width="0.480197"/>
<path d="M389.844 102.796H399.142V120.988H389.844V102.796ZM394.493 73.5505V102.796V73.5505ZM394.493 132.118V120.988V132.118Z" fill="#EC0000"/>
<path d="M394.493 73.5505V102.796M394.493 132.118V120.988M389.844 102.796H399.142V120.988H389.844V102.796Z" stroke="#EC0000" stroke-width="0.480197"/>
<path d="M409.99 166.737H419.288V192.836H409.99V166.737ZM414.639 104.485V166.737V104.485Z" fill="#00DA3C"/>
<path d="M414.639 104.485V166.737M409.99 166.737H419.288V192.836H409.99V166.737Z" stroke="#00DA3C" stroke-width="0.480197"/>
<path d="M430.135 204.657H439.433V225.306H430.135V204.657ZM434.784 163.514V204.657V163.514Z" fill="#00DA3C"/>
<path d="M434.784 163.514V204.657M430.135 204.657H439.433V225.306H430.135V204.657Z" stroke="#00DA3C" stroke-width="0.480197"/>
<path d="M450.279 162.516H459.577V183.855H450.279V162.516ZM454.928 101.645V162.516V101.645Z" fill="#EC0000"/>
<path d="M454.928 101.645V162.516M450.279 162.516H459.577V183.855H450.279V162.516Z" stroke="#EC0000" stroke-width="0.480197"/>
<path d="M471.977 191.301H481.275V204.427H471.977V191.301ZM475.076 181.552V191.301V181.552ZM475.076 243.421V204.427V243.421Z" fill="#EC0000"/>
<path d="M475.076 181.552V191.301M475.076 243.421V204.427M471.977 191.301H481.275V204.427H471.977V191.301Z" stroke="#EC0000" stroke-width="0.480197"/>
<path d="M492.123 215.25H501.421V260.078H492.123V215.25ZM496.772 192.375V215.25V192.375Z" fill="#EC0000"/>
<path d="M496.772 192.375V215.25M492.123 215.25H501.421V260.078H492.123V215.25Z" stroke="#EC0000" stroke-width="0.480197"/>
</g>
</g>
<defs>
<filter id="filter0_b_290_4133" x="-86.5282" y="-86.5282" width="679.056" height="471.056" filterUnits="userSpaceOnUse" color-interpolation-filters="sRGB">
<feFlood flood-opacity="0" result="BackgroundImageFix"/>
<feGaussianBlur in="BackgroundImageFix" stdDeviation="43.2641"/>
<feComposite in2="SourceAlpha" operator="in" result="effect1_backgroundBlur_290_4133"/>
<feBlend mode="normal" in="SourceGraphic" in2="effect1_backgroundBlur_290_4133" result="shape"/>
</filter>
<filter id="filter1_f_290_4133" x="-306.664" y="-64.2156" width="932.761" height="515.878" filterUnits="userSpaceOnUse" color-interpolation-filters="sRGB">
<feFlood flood-opacity="0" result="BackgroundImageFix"/>
<feBlend mode="normal" in="SourceGraphic" in2="BackgroundImageFix" result="shape"/>
<feGaussianBlur stdDeviation="32" result="effect1_foregroundBlur_290_4133"/>
</filter>
<linearGradient id="paint0_linear_290_4133" x1="-27" y1="14.0036" x2="-6.81577" y2="119.406" gradientUnits="userSpaceOnUse">
<stop stop-color="white" stop-opacity="0.12"/>
<stop offset="0.5" stop-color="white" stop-opacity="0.22"/>
<stop offset="1" stop-color="white" stop-opacity="0.12"/>
</linearGradient>
<linearGradient id="paint1_linear_290_4133" x1="-27" y1="31.9555" x2="-6.81577" y2="137.358" gradientUnits="userSpaceOnUse">
<stop stop-color="white" stop-opacity="0.12"/>
<stop offset="0.5" stop-color="white" stop-opacity="0.22"/>
<stop offset="1" stop-color="white" stop-opacity="0.12"/>
</linearGradient>
<linearGradient id="paint2_linear_290_4133" x1="-27" y1="49.9077" x2="-6.81577" y2="155.31" gradientUnits="userSpaceOnUse">
<stop stop-color="white" stop-opacity="0.12"/>
<stop offset="0.5" stop-color="white" stop-opacity="0.22"/>
<stop offset="1" stop-color="white" stop-opacity="0.12"/>
</linearGradient>
<linearGradient id="paint3_linear_290_4133" x1="-27" y1="67.8596" x2="-6.81577" y2="173.262" gradientUnits="userSpaceOnUse">
<stop stop-color="white" stop-opacity="0.12"/>
<stop offset="0.5" stop-color="white" stop-opacity="0.22"/>
<stop offset="1" stop-color="white" stop-opacity="0.12"/>
</linearGradient>
<linearGradient id="paint4_linear_290_4133" x1="-27" y1="85.8117" x2="-6.81577" y2="191.214" gradientUnits="userSpaceOnUse">
<stop stop-color="white" stop-opacity="0.12"/>
<stop offset="0.5" stop-color="white" stop-opacity="0.22"/>
<stop offset="1" stop-color="white" stop-opacity="0.12"/>
</linearGradient>
<linearGradient id="paint5_linear_290_4133" x1="-27" y1="103.764" x2="-6.81577" y2="209.166" gradientUnits="userSpaceOnUse">
<stop stop-color="white" stop-opacity="0.12"/>
<stop offset="0.5" stop-color="white" stop-opacity="0.22"/>
<stop offset="1" stop-color="white" stop-opacity="0.12"/>
</linearGradient>
<linearGradient id="paint6_linear_290_4133" x1="-27" y1="121.716" x2="-6.81577" y2="227.118" gradientUnits="userSpaceOnUse">
<stop stop-color="white" stop-opacity="0.12"/>
<stop offset="0.5" stop-color="white" stop-opacity="0.22"/>
<stop offset="1" stop-color="white" stop-opacity="0.12"/>
</linearGradient>
<linearGradient id="paint7_linear_290_4133" x1="-27" y1="139.668" x2="-6.81577" y2="245.07" gradientUnits="userSpaceOnUse">
<stop stop-color="white" stop-opacity="0.12"/>
<stop offset="0.5" stop-color="white" stop-opacity="0.22"/>
<stop offset="1" stop-color="white" stop-opacity="0.12"/>
</linearGradient>
<linearGradient id="paint8_linear_290_4133" x1="-27" y1="157.62" x2="-6.81577" y2="263.022" gradientUnits="userSpaceOnUse">
<stop stop-color="white" stop-opacity="0.12"/>
<stop offset="0.5" stop-color="white" stop-opacity="0.22"/>
<stop offset="1" stop-color="white" stop-opacity="0.12"/>
</linearGradient>
<linearGradient id="paint9_linear_290_4133" x1="-27" y1="175.572" x2="-6.81577" y2="280.974" gradientUnits="userSpaceOnUse">
<stop stop-color="white" stop-opacity="0.12"/>
<stop offset="0.5" stop-color="white" stop-opacity="0.22"/>
<stop offset="1" stop-color="white" stop-opacity="0.12"/>
</linearGradient>
<linearGradient id="paint10_linear_290_4133" x1="-27" y1="193.524" x2="-6.81577" y2="298.926" gradientUnits="userSpaceOnUse">
<stop stop-color="white" stop-opacity="0.12"/>
<stop offset="0.5" stop-color="white" stop-opacity="0.22"/>
<stop offset="1" stop-color="white" stop-opacity="0.12"/>
</linearGradient>
<linearGradient id="paint11_linear_290_4133" x1="-27" y1="211.476" x2="-6.81577" y2="316.878" gradientUnits="userSpaceOnUse">
<stop stop-color="white" stop-opacity="0.12"/>
<stop offset="0.5" stop-color="white" stop-opacity="0.22"/>
<stop offset="1" stop-color="white" stop-opacity="0.12"/>
</linearGradient>
<linearGradient id="paint12_linear_290_4133" x1="-27" y1="229.428" x2="-6.81577" y2="334.83" gradientUnits="userSpaceOnUse">
<stop stop-color="white" stop-opacity="0.12"/>
<stop offset="0.5" stop-color="white" stop-opacity="0.22"/>
<stop offset="1" stop-color="white" stop-opacity="0.12"/>
</linearGradient>
<linearGradient id="paint13_linear_290_4133" x1="-27" y1="247.38" x2="-6.81577" y2="352.782" gradientUnits="userSpaceOnUse">
<stop stop-color="white" stop-opacity="0.12"/>
<stop offset="0.5" stop-color="white" stop-opacity="0.22"/>
<stop offset="1" stop-color="white" stop-opacity="0.12"/>
</linearGradient>
<linearGradient id="paint14_linear_290_4133" x1="-27" y1="265.332" x2="-6.81577" y2="370.734" gradientUnits="userSpaceOnUse">
<stop stop-color="white" stop-opacity="0.12"/>
<stop offset="0.5" stop-color="white" stop-opacity="0.22"/>
<stop offset="1" stop-color="white" stop-opacity="0.12"/>
</linearGradient>
<linearGradient id="paint15_linear_290_4133" x1="-27" y1="283.284" x2="-6.81577" y2="388.686" gradientUnits="userSpaceOnUse">
<stop stop-color="white" stop-opacity="0.12"/>
<stop offset="0.5" stop-color="white" stop-opacity="0.22"/>
<stop offset="1" stop-color="white" stop-opacity="0.12"/>
</linearGradient>
<linearGradient id="paint16_linear_290_4133" x1="17.1496" y1="521.504" x2="122.552" y2="501.32" gradientUnits="userSpaceOnUse">
<stop stop-color="white" stop-opacity="0.12"/>
<stop offset="0.5" stop-color="white" stop-opacity="0.22"/>
<stop offset="1" stop-color="white" stop-opacity="0.12"/>
</linearGradient>
<linearGradient id="paint17_linear_290_4133" x1="35.1018" y1="521.504" x2="140.504" y2="501.32" gradientUnits="userSpaceOnUse">
<stop stop-color="white" stop-opacity="0.12"/>
<stop offset="0.5" stop-color="white" stop-opacity="0.22"/>
<stop offset="1" stop-color="white" stop-opacity="0.12"/>
</linearGradient>
<linearGradient id="paint18_linear_290_4133" x1="53.0539" y1="521.504" x2="158.456" y2="501.32" gradientUnits="userSpaceOnUse">
<stop stop-color="white" stop-opacity="0.12"/>
<stop offset="0.5" stop-color="white" stop-opacity="0.22"/>
<stop offset="1" stop-color="white" stop-opacity="0.12"/>
</linearGradient>
<linearGradient id="paint19_linear_290_4133" x1="71.0061" y1="521.504" x2="176.408" y2="501.32" gradientUnits="userSpaceOnUse">
<stop stop-color="white" stop-opacity="0.12"/>
<stop offset="0.5" stop-color="white" stop-opacity="0.22"/>
<stop offset="1" stop-color="white" stop-opacity="0.12"/>
</linearGradient>
<linearGradient id="paint20_linear_290_4133" x1="88.9582" y1="521.504" x2="194.36" y2="501.32" gradientUnits="userSpaceOnUse">
<stop stop-color="white" stop-opacity="0.12"/>
<stop offset="0.5" stop-color="white" stop-opacity="0.22"/>
<stop offset="1" stop-color="white" stop-opacity="0.12"/>
</linearGradient>
<linearGradient id="paint21_linear_290_4133" x1="106.91" y1="521.504" x2="212.312" y2="501.32" gradientUnits="userSpaceOnUse">
<stop stop-color="white" stop-opacity="0.12"/>
<stop offset="0.5" stop-color="white" stop-opacity="0.22"/>
<stop offset="1" stop-color="white" stop-opacity="0.12"/>
</linearGradient>
<linearGradient id="paint22_linear_290_4133" x1="124.862" y1="521.504" x2="230.264" y2="501.32" gradientUnits="userSpaceOnUse">
<stop stop-color="white" stop-opacity="0.12"/>
<stop offset="0.5" stop-color="white" stop-opacity="0.22"/>
<stop offset="1" stop-color="white" stop-opacity="0.12"/>
</linearGradient>
<linearGradient id="paint23_linear_290_4133" x1="142.814" y1="521.504" x2="248.216" y2="501.32" gradientUnits="userSpaceOnUse">
<stop stop-color="white" stop-opacity="0.12"/>
<stop offset="0.5" stop-color="white" stop-opacity="0.22"/>
<stop offset="1" stop-color="white" stop-opacity="0.12"/>
</linearGradient>
<linearGradient id="paint24_linear_290_4133" x1="160.766" y1="521.504" x2="266.169" y2="501.32" gradientUnits="userSpaceOnUse">
<stop stop-color="white" stop-opacity="0.12"/>
<stop offset="0.5" stop-color="white" stop-opacity="0.22"/>
<stop offset="1" stop-color="white" stop-opacity="0.12"/>
</linearGradient>
<linearGradient id="paint25_linear_290_4133" x1="178.718" y1="521.504" x2="284.12" y2="501.32" gradientUnits="userSpaceOnUse">
<stop stop-color="white" stop-opacity="0.12"/>
<stop offset="0.5" stop-color="white" stop-opacity="0.22"/>
<stop offset="1" stop-color="white" stop-opacity="0.12"/>
</linearGradient>
<linearGradient id="paint26_linear_290_4133" x1="196.67" y1="521.504" x2="302.072" y2="501.32" gradientUnits="userSpaceOnUse">
<stop stop-color="white" stop-opacity="0.12"/>
<stop offset="0.5" stop-color="white" stop-opacity="0.22"/>
<stop offset="1" stop-color="white" stop-opacity="0.12"/>
</linearGradient>
<linearGradient id="paint27_linear_290_4133" x1="214.622" y1="521.504" x2="320.024" y2="501.32" gradientUnits="userSpaceOnUse">
<stop stop-color="white" stop-opacity="0.12"/>
<stop offset="0.5" stop-color="white" stop-opacity="0.22"/>
<stop offset="1" stop-color="white" stop-opacity="0.12"/>
</linearGradient>
<linearGradient id="paint28_linear_290_4133" x1="232.574" y1="521.504" x2="337.977" y2="501.32" gradientUnits="userSpaceOnUse">
<stop stop-color="white" stop-opacity="0.12"/>
<stop offset="0.5" stop-color="white" stop-opacity="0.22"/>
<stop offset="1" stop-color="white" stop-opacity="0.12"/>
</linearGradient>
<linearGradient id="paint29_linear_290_4133" x1="250.526" y1="521.504" x2="355.928" y2="501.32" gradientUnits="userSpaceOnUse">
<stop stop-color="white" stop-opacity="0.12"/>
<stop offset="0.5" stop-color="white" stop-opacity="0.22"/>
<stop offset="1" stop-color="white" stop-opacity="0.12"/>
</linearGradient>
<linearGradient id="paint30_linear_290_4133" x1="268.478" y1="521.504" x2="373.88" y2="501.32" gradientUnits="userSpaceOnUse">
<stop stop-color="white" stop-opacity="0.12"/>
<stop offset="0.5" stop-color="white" stop-opacity="0.22"/>
<stop offset="1" stop-color="white" stop-opacity="0.12"/>
</linearGradient>
<linearGradient id="paint31_linear_290_4133" x1="286.43" y1="521.504" x2="391.833" y2="501.32" gradientUnits="userSpaceOnUse">
<stop stop-color="white" stop-opacity="0.12"/>
<stop offset="0.5" stop-color="white" stop-opacity="0.22"/>
<stop offset="1" stop-color="white" stop-opacity="0.12"/>
</linearGradient>
<linearGradient id="paint32_linear_290_4133" x1="304.382" y1="521.504" x2="409.784" y2="501.32" gradientUnits="userSpaceOnUse">
<stop stop-color="white" stop-opacity="0.12"/>
<stop offset="0.5" stop-color="white" stop-opacity="0.22"/>
<stop offset="1" stop-color="white" stop-opacity="0.12"/>
</linearGradient>
<linearGradient id="paint33_linear_290_4133" x1="322.334" y1="521.504" x2="427.736" y2="501.32" gradientUnits="userSpaceOnUse">
<stop stop-color="white" stop-opacity="0.12"/>
<stop offset="0.5" stop-color="white" stop-opacity="0.22"/>
<stop offset="1" stop-color="white" stop-opacity="0.12"/>
</linearGradient>
<linearGradient id="paint34_linear_290_4133" x1="340.286" y1="521.504" x2="445.689" y2="501.32" gradientUnits="userSpaceOnUse">
<stop stop-color="white" stop-opacity="0.12"/>
<stop offset="0.5" stop-color="white" stop-opacity="0.22"/>
<stop offset="1" stop-color="white" stop-opacity="0.12"/>
</linearGradient>
<linearGradient id="paint35_linear_290_4133" x1="340.286" y1="521.504" x2="445.689" y2="501.32" gradientUnits="userSpaceOnUse">
<stop stop-color="white" stop-opacity="0.12"/>
<stop offset="0.5" stop-color="white" stop-opacity="0.22"/>
<stop offset="1" stop-color="white" stop-opacity="0.12"/>
</linearGradient>
<linearGradient id="paint36_linear_290_4133" x1="358.238" y1="521.504" x2="463.641" y2="501.32" gradientUnits="userSpaceOnUse">
<stop stop-color="white" stop-opacity="0.12"/>
<stop offset="0.5" stop-color="white" stop-opacity="0.22"/>
<stop offset="1" stop-color="white" stop-opacity="0.12"/>
</linearGradient>
<linearGradient id="paint37_linear_290_4133" x1="376.19" y1="521.504" x2="481.592" y2="501.32" gradientUnits="userSpaceOnUse">
<stop stop-color="white" stop-opacity="0.12"/>
<stop offset="0.5" stop-color="white" stop-opacity="0.22"/>
<stop offset="1" stop-color="white" stop-opacity="0.12"/>
</linearGradient>
<linearGradient id="paint38_linear_290_4133" x1="394.142" y1="521.504" x2="499.544" y2="501.32" gradientUnits="userSpaceOnUse">
<stop stop-color="white" stop-opacity="0.12"/>
<stop offset="0.5" stop-color="white" stop-opacity="0.22"/>
<stop offset="1" stop-color="white" stop-opacity="0.12"/>
</linearGradient>
<linearGradient id="paint39_linear_290_4133" x1="412.094" y1="521.504" x2="517.497" y2="501.32" gradientUnits="userSpaceOnUse">
<stop stop-color="white" stop-opacity="0.12"/>
<stop offset="0.5" stop-color="white" stop-opacity="0.22"/>
<stop offset="1" stop-color="white" stop-opacity="0.12"/>
</linearGradient>
<linearGradient id="paint40_linear_290_4133" x1="430.047" y1="521.504" x2="535.449" y2="501.32" gradientUnits="userSpaceOnUse">
<stop stop-color="white" stop-opacity="0.12"/>
<stop offset="0.5" stop-color="white" stop-opacity="0.22"/>
<stop offset="1" stop-color="white" stop-opacity="0.12"/>
</linearGradient>
<linearGradient id="paint41_linear_290_4133" x1="447.998" y1="521.504" x2="553.4" y2="501.32" gradientUnits="userSpaceOnUse">
<stop stop-color="white" stop-opacity="0.12"/>
<stop offset="0.5" stop-color="white" stop-opacity="0.22"/>
<stop offset="1" stop-color="white" stop-opacity="0.12"/>
</linearGradient>
<linearGradient id="paint42_linear_290_4133" x1="465.95" y1="521.504" x2="571.353" y2="501.32" gradientUnits="userSpaceOnUse">
<stop stop-color="white" stop-opacity="0.12"/>
<stop offset="0.5" stop-color="white" stop-opacity="0.22"/>
<stop offset="1" stop-color="white" stop-opacity="0.12"/>
</linearGradient>
<linearGradient id="paint43_linear_290_4133" x1="483.903" y1="521.504" x2="589.305" y2="501.32" gradientUnits="userSpaceOnUse">
<stop stop-color="white" stop-opacity="0.12"/>
<stop offset="0.5" stop-color="white" stop-opacity="0.22"/>
<stop offset="1" stop-color="white" stop-opacity="0.12"/>
</linearGradient>
<linearGradient id="paint44_linear_290_4133" x1="501.855" y1="521.504" x2="607.257" y2="501.32" gradientUnits="userSpaceOnUse">
<stop stop-color="white" stop-opacity="0.12"/>
<stop offset="0.5" stop-color="white" stop-opacity="0.22"/>
<stop offset="1" stop-color="white" stop-opacity="0.12"/>
</linearGradient>
<clipPath id="clip0_290_4133">
<path d="M0 38.4C0 24.9587 0 18.2381 2.61584 13.1042C4.9168 8.58834 8.58834 4.9168 13.1042 2.61584C18.2381 0 24.9587 0 38.4 0H467.6C481.041 0 487.762 0 492.896 2.61584C497.412 4.9168 501.083 8.58834 503.384 13.1042C506 18.2381 506 24.9587 506 38.4V259.6C506 273.041 506 279.762 503.384 284.896C501.083 289.412 497.412 293.083 492.896 295.384C487.762 298 481.041 298 467.6 298H38.4C24.9587 298 18.2381 298 13.1042 295.384C8.58834 293.083 4.9168 289.412 2.61584 284.896C0 279.762 0 273.041 0 259.6V38.4Z" fill="white"/>
</clipPath>
<clipPath id="clip1_290_4133">
<rect width="2172.2" height="561" fill="white" transform="translate(-36.3501 -39.4961)"/>
</clipPath>
</defs>
</svg>
