<svg width="50" height="51" viewBox="0 0 50 51" fill="none" xmlns="http://www.w3.org/2000/svg">
<rect x="0.5" y="0.626953" width="49" height="49" rx="24.5" stroke="white"/>
<path fill-rule="evenodd" clip-rule="evenodd" d="M31 17.127H19C17.897 17.127 17 18.024 17 19.127V31.127C17 32.23 17.897 33.127 19 33.127H25V27.627H23V25.127H25V23.127C25 22.3313 25.3161 21.5682 25.8787 21.0056C26.4413 20.443 27.2044 20.127 28 20.127H30V22.627H29C28.448 22.627 28 22.575 28 23.127V25.127H30.5L29.5 27.627H28V33.127H31C32.103 33.127 33 32.23 33 31.127V19.127C33 18.024 32.103 17.127 31 17.127Z" fill="white"/>
</svg>
