<svg width="50" height="51" viewBox="0 0 50 51" fill="none" xmlns="http://www.w3.org/2000/svg">
<rect x="0.5" y="0.626953" width="49" height="49" rx="24.5" stroke="white"/>
<path d="M20.6409 23.8437V26.6705H24.9713C24.851 27.8132 23.7082 29.9784 20.6409 29.9784C18.0547 29.9784 15.9497 27.8132 15.9497 25.1669C15.9497 22.5205 17.9344 20.3554 20.5206 20.3554C22.0242 20.3554 23.0467 20.9568 23.588 21.4981L25.693 19.5134C24.6142 18.4896 23.256 17.8089 21.7903 17.5572C20.3245 17.3055 18.8171 17.4942 17.4586 18.0994C16.1001 18.7046 14.9516 19.6991 14.1585 20.9571C13.3653 22.2152 12.9631 23.6802 13.0027 25.1669C13.0027 29.3769 16.4309 32.8051 20.6409 32.8051C25.0915 32.8051 27.9784 29.6175 27.9784 25.2872L27.8582 23.8437" fill="white"/>
<path fill-rule="evenodd" clip-rule="evenodd" d="M34.3236 25.7382V28.4146H32.5794V25.7382H29.903V23.9941H32.5794V21.3177H34.3236V23.9941H37V25.7382H34.3236Z" fill="white"/>
</svg>
