<svg width="50" height="51" viewBox="0 0 50 51" fill="none" xmlns="http://www.w3.org/2000/svg">
<rect x="0.5" y="0.626953" width="49" height="49" rx="24.5" stroke="white"/>
<path d="M25 18.5727C27.1205 18.5727 27.4096 18.5727 28.2771 18.5727C29.0482 18.5727 29.4337 18.7655 29.7229 18.8619C30.1084 19.0547 30.3976 19.1511 30.6867 19.4402C30.9759 19.7294 31.1687 20.0185 31.2651 20.4041C31.3614 20.6932 31.4578 21.0788 31.5542 21.8498C31.5542 22.7173 31.5542 22.9101 31.5542 25.127C31.5542 27.3438 31.5542 27.5366 31.5542 28.4041C31.5542 29.1751 31.3614 29.5607 31.2651 29.8498C31.0723 30.2354 30.9759 30.5245 30.6867 30.8137C30.3976 31.1029 30.1084 31.2956 29.7229 31.392C29.4337 31.4884 29.0482 31.5848 28.2771 31.6812C27.4096 31.6812 27.2169 31.6812 25 31.6812C22.7831 31.6812 22.5904 31.6812 21.7229 31.6812C20.9518 31.6812 20.5663 31.4884 20.2771 31.392C19.8916 31.1992 19.6024 31.1029 19.3133 30.8137C19.0241 30.5245 18.8313 30.2354 18.7349 29.8498C18.6386 29.5607 18.5422 29.1751 18.4458 28.4041C18.4458 27.5366 18.4458 27.3438 18.4458 25.127C18.4458 22.9101 18.4458 22.7173 18.4458 21.8498C18.4458 21.0788 18.6386 20.6932 18.7349 20.4041C18.9277 20.0185 19.0241 19.7294 19.3133 19.4402C19.6024 19.1511 19.8916 18.9583 20.2771 18.8619C20.5663 18.7655 20.9518 18.6691 21.7229 18.5727C22.5904 18.5727 22.8795 18.5727 25 18.5727ZM25 17.127C22.7831 17.127 22.5904 17.127 21.7229 17.127C20.8554 17.127 20.2771 17.3197 19.7952 17.5125C19.3133 17.7053 18.8313 17.9944 18.3494 18.4764C17.8675 18.9583 17.6747 19.3438 17.3855 19.9221C17.1928 20.4041 17.0964 20.9824 17 21.8498C17 22.7173 17 23.0065 17 25.127C17 27.3438 17 27.5366 17 28.4041C17 29.2715 17.1928 29.8498 17.3855 30.3318C17.5783 30.8137 17.8675 31.2956 18.3494 31.7776C18.8313 32.2595 19.2169 32.4523 19.7952 32.7414C20.2771 32.9342 20.8554 33.0306 21.7229 33.127C22.5904 33.127 22.8795 33.127 25 33.127C27.1205 33.127 27.4096 33.127 28.2771 33.127C29.1446 33.127 29.7229 32.9342 30.2048 32.7414C30.6867 32.5486 31.1687 32.2595 31.6506 31.7776C32.1325 31.2956 32.3253 30.9101 32.6145 30.3318C32.8072 29.8498 32.9036 29.2715 33 28.4041C33 27.5366 33 27.2474 33 25.127C33 23.0065 33 22.7173 33 21.8498C33 20.9824 32.8072 20.4041 32.6145 19.9221C32.4217 19.4402 32.1325 18.9583 31.6506 18.4764C31.1687 17.9944 30.7831 17.8017 30.2048 17.5125C29.7229 17.3197 29.1446 17.2233 28.2771 17.127C27.4096 17.127 27.2169 17.127 25 17.127Z" fill="white"/>
<path d="M25 20.9824C22.6867 20.9824 20.8554 22.8137 20.8554 25.127C20.8554 27.4402 22.6867 29.2715 25 29.2715C27.3133 29.2715 29.1446 27.4402 29.1446 25.127C29.1446 22.8137 27.3133 20.9824 25 20.9824ZM25 27.8257C23.5542 27.8257 22.3012 26.6691 22.3012 25.127C22.3012 23.6812 23.4578 22.4282 25 22.4282C26.4458 22.4282 27.6988 23.5848 27.6988 25.127C27.6988 26.5727 26.4458 27.8257 25 27.8257Z" fill="white"/>
<path d="M29.241 21.8498C29.7733 21.8498 30.2048 21.4183 30.2048 20.886C30.2048 20.3537 29.7733 19.9221 29.241 19.9221C28.7086 19.9221 28.2771 20.3537 28.2771 20.886C28.2771 21.4183 28.7086 21.8498 29.241 21.8498Z" fill="white"/>
</svg>
